<?xml version="1.0" encoding="UTF-8"?>
<svg width="85px" height="77px" viewBox="0 0 85 77" version="1.1" xmlns="http://www.w3.org/2000/svg" xmlns:xlink="http://www.w3.org/1999/xlink">
    <!-- Generator: sketchtool 57.1 (101010) - https://sketch.com -->
    <title>0CF11069-57B6-43D5-97B1-B5CA54C9FBA5</title>
    <desc>Created with sketchtool.</desc>
    <defs>
        <polygon id="path-1" points="0 76.9969313 84.2960563 76.9969313 84.2960563 0.916192821 0 0.916192821"></polygon>
    </defs>
    <g id="backend" stroke="none" stroke-width="1" fill="none" fill-rule="evenodd">
        <g id="Desktop-Copy" transform="translate(-452.000000, -52.000000)">
            <g id="Group-82" transform="translate(452.000000, 52.000000)">
                <g id="Group-81">
                    <path d="M41.1999789,71.6777713 C40.710331,71.9075867 40.3008944,72.0094636 39.8435704,72.0094636 C38.7565282,72.0094636 38.2465282,71.253679 38.2465282,70.1152636 C38.2465282,69.0242328 38.7936408,68.2850328 39.9297676,68.2850328 C40.4840634,68.2850328 40.8384296,68.4177097 41.1245563,68.6036944 L40.8228662,69.1308482 C40.6193451,68.9969867 40.311669,68.9010328 39.9357535,68.9010328 C39.2844859,68.9010328 38.9887817,69.390279 38.9887817,70.1034174 C38.9887817,70.9504174 39.3012465,71.4124174 39.9142042,71.4124174 C40.1500493,71.4124174 40.3775141,71.3650328 40.5487113,71.2856636 L40.5487113,70.6258328 L40.0470915,70.6258328 L40.0099789,70.1081559 L41.1999789,70.1081559 L41.1999789,71.6777713 Z" id="Fill-1" fill="#FFFFFF"></path>
                    <path d="M43.4165634,70.6470374 C43.4165634,70.0203759 43.2286056,69.8000374 42.8993803,69.8000374 C42.5725493,69.8000374 42.3905775,70.0251144 42.3905775,70.6470374 C42.3905775,71.2547451 42.5557887,71.4975913 42.8993803,71.4975913 C43.244169,71.4975913 43.4165634,71.2689605 43.4165634,70.6470374 M44.1384648,70.6470374 C44.1384648,71.535499 43.6859296,72.0081605 42.8993803,72.0081605 C42.1092394,72.0081605 41.6626901,71.5402374 41.6626901,70.6470374 C41.6626901,69.8805913 42.0948732,69.2942067 42.8993803,69.2942067 C43.695507,69.2942067 44.1384648,69.8805913 44.1384648,70.6470374" id="Fill-3" fill="#FFFFFF"></path>
                    <path d="M45.3643803,71.2323559 C45.4733239,71.3756944 45.6552958,71.4988944 45.8432535,71.4988944 C46.1485352,71.4988944 46.376,71.2750021 46.376,70.6471559 C46.376,70.0240482 46.1772676,69.806079 45.8540282,69.806079 C45.6768451,69.806079 45.4840986,69.8972944 45.3643803,70.0133867 L45.3643803,71.2323559 Z M45.316493,69.6141713 C45.4362113,69.4542482 45.7187465,69.2943251 46.0156479,69.2943251 C46.6345915,69.2943251 47.0799437,69.7314482 47.0799437,70.6471559 C47.0799437,71.546279 46.5412113,72.0094636 45.9294507,72.0094636 C45.552338,72.0094636 45.3332535,71.8649405 45.1656479,71.6410482 L45.0363521,71.9549713 L44.6604366,71.9549713 L44.6604366,68.2850328 L45.3643803,68.2850328 L45.3643803,69.1936328 L45.316493,69.6141713 Z" id="Fill-5" fill="#FFFFFF"></path>
                    <mask id="mask-2" fill="white">
                        <use xlink:href="#path-1"></use>
                    </mask>
                    <g id="Clip-8"></g>
                    <path d="M47.8721944,68.9178544 L48.7485287,68.9178544 L48.7485287,68.2852697 L47.8721944,68.2852697 L47.8721944,68.9178544 Z M47.89875,71.9552082 L47.89875,69.8596236 L47.5269718,69.7956544 L47.5269718,69.3490544 L48.7588559,69.3490544 L48.7588559,71.9552082 L47.89875,71.9552082 Z" id="Fill-7" fill="#FFFFFF" mask="url(#mask-2)"></path>
                    <path d="M50.2594225,69.8059605 C49.9110423,69.8059605 49.7709718,70.1198836 49.7709718,70.4278836 L50.733507,70.4278836 C50.733507,70.0938221 50.6269577,69.8059605 50.2594225,69.8059605 L50.2594225,69.8059605 Z M49.7709718,70.8389451 C49.7709718,71.2535605 50.0068169,71.4821913 50.4485775,71.4821913 C50.7215352,71.4821913 50.9861127,71.3696528 51.217169,71.2594836 L51.3512535,71.7487297 C51.132169,71.8648221 50.7825915,72.0093451 50.3623803,72.0093451 C49.5387183,72.0093451 49.0610423,71.5082528 49.0610423,70.6470374 C49.0610423,69.8426836 49.4477324,69.2942067 50.2917465,69.2942067 C51.0878732,69.2942067 51.4051268,69.8794067 51.4051268,70.5356836 L51.4051268,70.8389451 L49.7709718,70.8389451 Z" id="Fill-9" fill="#FFFFFF" mask="url(#mask-2)"></path>
                    <path d="M53.434831,69.9285682 C53.349831,69.9025067 53.2301127,69.8871067 53.1068028,69.8871067 C52.9176479,69.8871067 52.7524366,69.9652913 52.6327183,70.0624297 L52.6327183,71.9554451 L51.9335634,71.9554451 L51.9335634,69.3492913 L52.4232113,69.3492913 C52.4507465,69.4701221 52.4770845,69.5838451 52.499831,69.6999374 L52.5201831,69.6999374 C52.6003944,69.5127682 52.8374366,69.3007221 53.1487042,69.3007221 C53.2899718,69.3007221 53.3905352,69.3208605 53.4503944,69.3386297 C53.4444085,69.5352759 53.4444085,69.7319221 53.434831,69.9285682" id="Fill-10" fill="#FFFFFF" mask="url(#mask-2)"></path>
                    <path d="M55.4948239,71.9554451 L55.4948239,70.4071528 C55.4948239,70.0126759 55.3427817,69.8278759 55.0219366,69.8278759 C54.8375704,69.8278759 54.6831338,69.9072451 54.5586268,69.987799 L54.5586268,71.9554451 L53.8546831,71.9554451 L53.8546831,69.3492913 L54.3383451,69.3492913 L54.4460915,69.6466297 C54.5969366,69.4701221 54.8866549,69.294799 55.2805282,69.294799 C55.9473592,69.294799 56.2095423,69.6833528 56.2095423,70.3443682 L56.2095423,71.9554451 L55.4948239,71.9554451 Z" id="Fill-11" fill="#FFFFFF" mask="url(#mask-2)"></path>
                    <path d="M58.432831,70.6470374 C58.432831,70.0203759 58.2436761,69.8000374 57.9144507,69.8000374 C57.5888169,69.8000374 57.4068451,70.0251144 57.4068451,70.6470374 C57.4068451,71.2547451 57.5720563,71.4975913 57.9144507,71.4975913 C58.2592394,71.4975913 58.432831,71.2689605 58.432831,70.6470374 M59.1535352,70.6470374 C59.1535352,71.535499 58.701,72.0081605 57.9144507,72.0081605 C57.125507,72.0081605 56.6777606,71.5402374 56.6777606,70.6470374 C56.6777606,69.8805913 57.1099437,69.2942067 57.9144507,69.2942067 C58.7117746,69.2942067 59.1535352,69.8805913 59.1535352,70.6470374" id="Fill-12" fill="#FFFFFF" mask="url(#mask-2)"></path>
                    <path d="M62.5049296,69.9447974 C62.3971831,69.8796436 62.2307746,69.816859 62.0272535,69.816859 C61.6932394,69.816859 61.4825352,70.0407513 61.4825352,70.6472744 C61.4825352,71.2691974 61.6824648,71.5025667 62.0164789,71.5025667 C62.1924648,71.5025667 62.3708451,71.4196436 62.5049296,71.279859 L62.5049296,69.9447974 Z M62.5707746,69.5515051 C62.5264789,69.401059 62.5049296,69.2695667 62.5049296,69.0717359 L62.5049296,68.2851513 L63.2052817,68.2851513 L63.2052817,71.9550897 L62.6342254,71.9550897 L62.5540141,71.6684128 C62.4462676,71.8283359 62.1924648,72.0083974 61.8548592,72.0083974 C61.2574648,72.0083974 60.7797887,71.5843051 60.7797887,70.6531974 C60.7797887,69.7896128 61.2742254,69.2944436 61.9147183,69.2944436 C62.1984507,69.2944436 62.4259155,69.3903974 62.5707746,69.5515051 L62.5707746,69.5515051 Z" id="Fill-13" fill="#FFFFFF" mask="url(#mask-2)"></path>
                    <path d="M64.9366479,69.8059605 C64.5870704,69.8059605 64.4481972,70.1198836 64.4481972,70.4278836 L65.4107324,70.4278836 C65.4107324,70.0938221 65.3029859,69.8059605 64.9366479,69.8059605 L64.9366479,69.8059605 Z M64.4481972,70.8389451 C64.4481972,71.2535605 64.6840423,71.4821913 65.1246056,71.4821913 C65.3999577,71.4821913 65.6621408,71.3696528 65.8955915,71.2594836 L66.0284789,71.7487297 C65.8093944,71.8648221 65.4586197,72.0093451 65.0396056,72.0093451 C64.2159437,72.0093451 63.7382676,71.5082528 63.7382676,70.6470374 C63.7382676,69.8426836 64.1249577,69.2942067 64.9689718,69.2942067 C65.7650986,69.2942067 66.0823521,69.8794067 66.0823521,70.5356836 L66.0823521,70.8389451 L64.4481972,70.8389451 Z" id="Fill-14" fill="#FFFFFF" mask="url(#mask-2)"></path>
                    <path d="M69.2845775,72.009819 C68.2621831,72.009819 67.7198592,71.3286651 67.7198592,70.131019 C67.7198592,69.0281421 68.2573944,68.2842036 69.2845775,68.2842036 C69.7790141,68.2842036 70.2255634,68.390819 70.5212676,68.5874651 L70.2519014,69.1406805 C70.0639437,69.0032651 69.7359155,68.8954651 69.3588028,68.8954651 C68.7566197,68.8954651 68.4573239,69.3385113 68.4573239,70.1250959 C68.4573239,70.9555113 68.7566197,71.3961882 69.3480282,71.3961882 C69.7035915,71.3961882 70.0579577,71.2481113 70.3069718,71.0680497 L70.5308451,71.6271882 C70.170493,71.871219 69.7622535,72.009819 69.2845775,72.009819" id="Fill-15" fill="#FFFFFF" mask="url(#mask-2)"></path>
                    <path d="M71.0172606,71.9554451 L71.0172606,68.2843221 L71.7212042,68.2843221 L71.7212042,69.248599 C71.7212042,69.4286605 71.6625423,69.6099067 71.6517676,69.6513682 C71.8014155,69.4701221 72.0228944,69.294799 72.3976127,69.294799 C73.1578239,69.294799 73.3721197,69.6833528 73.3721197,70.3443682 L73.3721197,71.9554451 L72.6574014,71.9554451 L72.6574014,70.4071528 C72.6574014,70.3384451 72.6466268,70.2851374 72.6190915,70.2484144 C72.5975423,69.9558144 72.4466972,69.8278759 72.1857113,69.8278759 C72.0001479,69.8278759 71.8445141,69.9072451 71.7212042,69.987799 L71.7212042,71.9554451 L71.0172606,71.9554451 Z" id="Fill-16" fill="#FFFFFF" mask="url(#mask-2)"></path>
                    <path d="M74.2014294,68.9178544 L75.0767154,68.9178544 L75.0767154,68.2852697 L74.2014294,68.2852697 L74.2014294,68.9178544 Z M74.2279532,71.9552082 L74.2279532,69.8596236 L73.8566197,69.7956544 L73.8566197,69.3490544 L75.0885038,69.3490544 L75.0885038,71.9552082 L74.2279532,71.9552082 Z" id="Fill-17" fill="#FFFFFF" mask="url(#mask-2)"></path>
                    <path d="M75.4997535,71.2636297 L75.4997535,68.2843221 L76.1917254,68.2843221 L76.1917254,71.2269067 C76.1917254,71.4448759 76.3258099,71.4780451 76.6167254,71.4780451 L76.6167254,71.9672913 C76.6167254,71.9672913 76.4132042,72.0087528 76.2300352,72.0087528 C75.6925,72.0087528 75.4997535,71.727999 75.4997535,71.2636297" id="Fill-18" fill="#FFFFFF" mask="url(#mask-2)"></path>
                    <path d="M78.1723451,69.8059605 C77.8227676,69.8059605 77.6838944,70.1198836 77.6838944,70.4278836 L78.6464296,70.4278836 C78.6464296,70.0938221 78.5374859,69.8059605 78.1723451,69.8059605 L78.1723451,69.8059605 Z M77.6838944,70.8389451 C77.6838944,71.2535605 77.9197394,71.4821913 78.3603028,71.4821913 C78.6344577,71.4821913 78.897838,71.3696528 79.1300915,71.2594836 L79.2629789,71.7487297 C79.0426972,71.8648221 78.6943169,72.0093451 78.2753028,72.0093451 C77.4516408,72.0093451 76.9727676,71.5082528 76.9727676,70.6470374 C76.9727676,69.8426836 77.3594577,69.2942067 78.204669,69.2942067 C79.0007958,69.2942067 79.3180493,69.8794067 79.3180493,70.5356836 L79.3180493,70.8389451 L77.6838944,70.8389451 Z" id="Fill-19" fill="#FFFFFF" mask="url(#mask-2)"></path>
                    <path d="M82.9868169,75.7013174 L35.4263239,75.7013174 L35.4251268,2.21251744 L82.9856197,2.21251744 L82.9868169,75.7013174 Z M1.309,2.21251744 L34.1154085,2.21251744 L34.1178028,75.7013174 L1.31139437,75.7013174 L1.309,2.21251744 Z M82.9856197,0.916548205 L1.309,0.916548205 L0.000478873239,0.916548205 L0.000478873239,2.21251744 L0.00167605634,75.7013174 L0.00167605634,76.9972867 L1.31139437,76.9972867 L82.9868169,76.9972867 L84.2965352,76.9972867 L84.2965352,75.7013174 L84.295338,2.21251744 L84.295338,0.916548205 L82.9856197,0.916548205 Z" id="Fill-20" fill="#FFFFFF" mask="url(#mask-2)"></path>
                    <path d="M18.7398662,12.2885005 C18.8140915,12.2292697 18.9685282,12.0977774 18.8440211,11.8478236 C18.784162,11.7317313 18.627331,11.7210697 18.6955704,11.7068544 C19.5335986,11.5113928 19.9825423,10.2995313 19.9574014,9.83516205 C20.3883873,10.2284544 21.3557113,10.3398082 22.0572606,9.74986974 C22.510993,9.31748513 22.7300775,8.18262359 21.9543028,7.61400821 C21.5580352,7.32496205 20.8552887,7.29890051 20.4135282,7.63533128 C20.2746549,7.40433128 20.0340211,7.23848513 19.7742324,7.2361159 C19.7706408,7.15556205 19.7862042,6.60945436 19.4581761,6.25406974 C19.0379648,5.80154667 17.8599366,5.76837744 17.4313451,6.26354667 C16.5837394,6.05268513 15.4835282,6.44005436 15.5457817,7.75260821 C14.9507817,7.52042359 14.6095845,7.51686974 14.2947254,7.5441159 C13.9990211,7.57373128 13.6039507,7.83434667 13.4674718,8.01440821 C13.4040211,8.09377744 13.3333873,8.2063159 13.2819085,8.30345436 C13.1861338,8.49180821 13.1119085,8.74057744 13.1382465,9.01540821 C13.1825423,9.48333128 13.415993,9.87662359 13.7583873,10.0626082 C14.2300775,10.3184851 14.8298662,10.2841313 15.044162,10.2497774 C15.2081761,10.214239 15.384162,10.1550082 15.5709225,9.96310051 C15.6247958,9.90742359 15.6666972,9.81857744 15.7457113,9.81739282 C15.7433169,9.93703897 15.7014155,10.5660697 16.4101479,10.8645928 C16.4137394,10.8942082 16.4233169,10.9238236 16.4305,10.968839 C16.6555704,11.8347928 17.2433873,11.7269928 17.2529648,11.7874082 C16.9919789,11.9437774 17.1033169,12.1712236 17.1643732,12.2885005 C17.5630352,12.1664851 17.8587394,12.1510851 17.9521197,12.1510851 C18.0455,12.1510851 18.3412042,12.1664851 18.7398662,12.2885005" id="Fill-21" fill="#FFFFFF" mask="url(#mask-2)"></path>
                    <polygon id="Fill-22" fill="#FFFFFF" mask="url(#mask-2)" points="17.8595775 13.1607328 17.3304225 14.8938251 15.4412676 14.8938251 15.4472535 14.8961944 16.9772535 15.9789328 16.391831 17.6907021 17.8595775 16.5890097 19.3285211 17.6907021 18.7419014 15.9789328 20.2719014 14.8950097 20.275493 14.8938251 18.3887324 14.8938251"></polygon>
                    <path d="M20.2714225,14.8948913 L18.7426197,15.9788144 L19.3280423,17.6905836 L17.8590986,16.5888913 L16.3925493,17.6905836 L16.9767746,15.9788144 L15.4479718,14.8960759 L15.4419859,14.8937067 L17.3299437,14.8937067 L17.8590986,13.1606144 L18.3894507,14.8937067 L20.2750141,14.8937067 L20.2714225,14.8948913 Z M20.7311408,14.9031836 C20.7287465,14.0336759 21.3201549,13.3631836 21.3285352,13.3548913 C21.3931831,13.2838144 21.399169,13.2151067 21.3943803,13.1689067 C21.3836056,13.0883528 21.3201549,13.0338605 21.3069859,13.0326759 C21.1393803,12.9189528 20.7586761,12.6891374 20.7586761,12.6891374 L20.7287465,12.6630759 L20.6952254,12.6630759 C20.6545211,12.6630759 20.6233944,12.6879528 20.5707183,12.7258605 C20.4653662,12.8052297 20.2702254,12.9556759 19.9290282,12.9556759 C19.869169,12.9556759 19.8069155,12.9497528 19.7422676,12.9414605 C19.5626901,12.9165836 19.2633944,12.7661374 19.2633944,12.7661374 C19.1664225,12.715199 19.045507,12.6630759 18.9952254,12.6405682 L18.9736761,12.6322759 C18.4840282,12.4308913 18.0686056,12.4143067 17.9524789,12.4143067 C17.8363521,12.4143067 17.4197324,12.4308913 16.9288873,12.6322759 L16.9061408,12.6405682 C16.881,12.6512297 16.8367042,12.6725528 16.7840282,12.6962451 L16.4859296,12.8360297 C16.3865634,12.8786759 16.2572676,12.9284297 16.1602958,12.9414605 C16.0968451,12.9497528 16.0345915,12.9556759 15.972338,12.9556759 C15.632338,12.9556759 15.4371972,12.8052297 15.3306479,12.7258605 C15.2779718,12.6879528 15.2468451,12.6630759 15.207338,12.6630759 L15.1774085,12.6654451 L15.1594507,12.6772913 C15.1582535,12.6784759 14.769169,12.9142144 14.6099437,13.0243836 C14.5836056,13.0362297 14.5213521,13.0883528 14.5093803,13.1700913 C14.5045915,13.2151067 14.5105775,13.2838144 14.5764225,13.3548913 C14.6003662,13.3845067 15.1750141,14.0431528 15.1738169,14.9162144 C15.1881831,15.0157221 15.2324789,15.5381374 14.7811408,16.3081374 C14.7595915,16.3484144 14.2639577,17.2439836 14.8074789,18.0305682 C14.8098732,18.0376759 15.2145211,18.7697682 16.4009296,18.7697682 C16.4979014,18.7697682 17.3730423,18.7863528 17.6735352,19.3395682 C17.6867042,19.3620759 17.8279718,19.583599 17.8842394,19.6925836 L17.9524789,19.8252605 L18.0183239,19.6925836 C18.0757887,19.5847836 18.2134648,19.3644451 18.2350141,19.3348297 C18.5307183,18.7863528 19.4058592,18.7697682 19.502831,18.7697682 C20.6724789,18.7697682 21.0902958,18.0412297 21.0902958,18.0412297 C21.6445915,17.2368759 21.1250141,16.3128759 21.1214225,16.3081374 C20.6724789,15.5381374 20.7155775,15.0157221 20.7311408,14.9031836 L20.7311408,14.9031836 Z" id="Fill-23" fill="#FFFFFF" mask="url(#mask-2)"></path>
                    <path d="M12.7399437,23.2473774 C13.5719859,24.0943774 14.7811408,23.6240851 14.7811408,23.6240851 C14.9738873,23.5956544 15.0744507,23.0092697 15.1235352,22.5531928 C14.3992394,22.4607928 13.6988873,22.334039 13.0248732,22.1622697 C12.7998028,22.7166697 12.7399437,23.2473774 12.7399437,23.2473774" id="Fill-24" fill="#FFFFFF" mask="url(#mask-2)"></path>
                    <path d="M12.5189437,19.6634421 C12.4902113,19.6409344 12.4638732,19.6148728 12.4267606,19.6065805 C12.3202113,19.5888113 12.2459859,19.6776574 12.1250704,19.6527805 C12.0161268,19.6314574 11.1661268,18.9811036 11.1038732,18.9408267 C10.919507,18.8176267 10.6202113,18.6482267 10.4849296,18.4610574 C10.3939437,18.3354882 10.4657746,18.1743805 10.4478169,18.0191959 C10.4358451,17.9066574 10.2993662,17.6389344 10.0635211,17.563119 C10.0096479,17.8308421 9.65288732,18.7773497 8.49521127,19.0166421 C8.3371831,19.6326421 8.58380282,20.827919 8.72626761,20.9748113 C8.83401408,20.9925805 8.9321831,21.0482574 9.02077465,21.1181497 C9.03035211,20.8812267 9.09739437,20.7248574 9.09739437,20.7248574 C9.41823944,20.073319 10.1760563,20.2770728 10.1760563,20.2770728 C10.4406338,20.3564421 10.4969014,20.5886267 10.4969014,20.5886267 C10.598662,21.105119 10.1664789,21.1489497 10.1664789,21.1489497 C9.85521127,21.1643497 9.85042254,20.9155805 9.85042254,20.9155805 C9.81211268,20.6751036 10.1569014,20.6620728 10.1569014,20.6620728 C9.86478873,20.1574267 8.94894366,20.9854728 9.54992958,21.7151959 C9.61098592,21.7898267 9.66725352,21.7412574 9.66725352,21.7412574 C11.475,20.8551651 11.7683099,20.4772728 11.7683099,20.4772728 C12.1526056,20.1396574 12.4435211,19.9311651 12.6661972,19.7854574 C12.58,19.7250421 12.5189437,19.6634421 12.5189437,19.6634421" id="Fill-25" fill="#FFFFFF" mask="url(#mask-2)"></path>
                    <path d="M21.0746127,12.5222251 C21.1057394,12.5471021 21.1428521,12.5755328 21.1835563,12.6075174 C21.1440493,12.5767174 21.1045423,12.5471021 21.0746127,12.5222251" id="Fill-26" fill="#FFFFFF" mask="url(#mask-2)"></path>
                    <path d="M21.6568028,12.9687067 C21.5969437,12.9248759 21.5299014,12.8739374 21.461662,12.8218144 C21.5322958,12.8751221 21.5957465,12.9236913 21.6568028,12.9687067" id="Fill-27" fill="#FFFFFF" mask="url(#mask-2)"></path>
                    <path d="M21.2465282,12.6564421 C21.3063873,12.7038267 21.3626549,12.7452882 21.4273028,12.7962267 C21.3662465,12.7488421 21.303993,12.7014574 21.2465282,12.6564421" id="Fill-28" fill="#FFFFFF" mask="url(#mask-2)"></path>
                    <path d="M12.3822254,22.9373636 C12.4396901,22.8686559 12.5127183,22.5559174 12.5127183,22.5559174 C12.5570141,22.3770405 12.621662,22.2313328 12.6851127,22.0844405 C12.4887746,22.0299482 12.2996197,21.9636097 12.1080704,21.9020097 C12.1284225,22.4872097 12.3822254,22.9373636 12.3822254,22.9373636" id="Fill-29" fill="#FFFFFF" mask="url(#mask-2)"></path>
                    <path d="M20.9109577,22.5543774 C20.9612394,23.0104544 21.0618028,23.5956544 21.2533521,23.6240851 C21.2533521,23.6240851 22.462507,24.0943774 23.2945493,23.2473774 C23.2945493,23.2473774 23.2358873,22.7178544 23.0108169,22.164639 C22.3368028,22.334039 21.6352535,22.4631621 20.9109577,22.5543774" id="Fill-30" fill="#FFFFFF" mask="url(#mask-2)"></path>
                    <path d="M23.5204577,22.5555621 C23.5204577,22.5555621 23.5946831,22.8694851 23.6521479,22.9370082 C23.6521479,22.9370082 23.9059507,22.4892236 23.9263028,21.9052082 C23.7347535,21.9668082 23.5455986,22.0331467 23.3492606,22.0864544 C23.4115141,22.2345313 23.476162,22.3790544 23.5204577,22.5555621" id="Fill-31" fill="#FFFFFF" mask="url(#mask-2)"></path>
                    <path d="M14.5217113,20.9162913 C14.1326268,20.9222144 13.8261479,21.0750297 13.5855141,21.2965528 C14.0404437,21.400799 14.571993,21.4955682 15.1598099,21.5784913 C15.0604437,20.9091836 14.5217113,20.9162913 14.5217113,20.9162913" id="Fill-32" fill="#FFFFFF" mask="url(#mask-2)"></path>
                    <path d="M22.7616831,21.2228697 C23.1244296,21.132839 23.4512606,21.0439928 23.7074577,20.963439 C23.6535845,20.8615621 23.5997113,20.7608697 23.5206972,20.6613621 C23.5206972,20.6613621 22.4959085,19.4305467 20.6570352,20.1223621 C20.6187254,20.1353928 20.7384437,20.4291774 21.2424577,20.5393467 C21.3083028,20.5535621 22.1032324,20.6056851 22.7616831,21.2228697" id="Fill-33" fill="#FFFFFF" mask="url(#mask-2)"></path>
                    <path d="M21.5142183,20.9162913 C21.5142183,20.9162913 20.9730915,20.907999 20.8749225,21.5796759 C21.4639366,21.4979374 21.9966831,21.4019836 22.4516127,21.2989221 C22.2109789,21.0762144 21.9045,20.9222144 21.5142183,20.9162913" id="Fill-34" fill="#FFFFFF" mask="url(#mask-2)"></path>
                    <path d="M16.3536408,20.4917251 C16.2231479,20.3152174 16.0315986,20.3092944 16.0315986,20.3092944 C15.7658239,20.3057405 15.7119507,20.9170021 15.6341338,21.6431713 C16.1968099,21.7071405 16.8265282,21.7462328 17.4909648,21.7628174 C17.2060352,21.188279 16.5835,20.8092021 16.3536408,20.4917251" id="Fill-35" fill="#FFFFFF" mask="url(#mask-2)"></path>
                    <path d="M12.5130775,20.6618359 C12.4340634,20.760159 12.3813873,20.8608513 12.3275141,20.9615436 C12.5837113,21.0409128 12.9117394,21.1309436 13.2744859,21.222159 C13.9329366,20.6049744 14.726669,20.5528513 14.7913169,20.5386359 C15.2965282,20.4296513 15.4138521,20.1358667 15.3791338,20.1228359 C13.5390634,19.4310205 12.5130775,20.6618359 12.5130775,20.6618359" id="Fill-36" fill="#FFFFFF" mask="url(#mask-2)"></path>
                    <path d="M20.0037324,20.308939 C20.0037324,20.308939 19.8121831,20.3148621 19.680493,20.4913697 C19.4494366,20.8088467 18.8280986,21.1879236 18.543169,21.7636467 C19.2088028,21.7458774 19.8361268,21.7079697 20.4011972,21.6440005 C20.3245775,20.9190159 20.2707042,20.3053851 20.0037324,20.308939" id="Fill-37" fill="#FFFFFF" mask="url(#mask-2)"></path>
                    <path d="M23.652507,22.9373636 C23.5950423,22.8686559 23.5208169,22.5559174 23.5208169,22.5559174 C23.4765211,22.3782251 23.4118732,22.2337021 23.3496197,22.0868097 C23.5447606,22.0323174 23.7339155,21.9671636 23.926662,21.9055636 C23.9063099,22.489579 23.652507,22.9373636 23.652507,22.9373636 M21.2533521,23.6244405 C21.0618028,23.5960097 20.9612394,23.0108097 20.9109577,22.5547328 C21.6352535,22.4635174 22.3368028,22.3343944 23.0108169,22.1649944 C23.2358873,22.7170251 23.2945493,23.2477328 23.2945493,23.2477328 C22.462507,24.0947328 21.2533521,23.6244405 21.2533521,23.6244405 M21.514338,20.9164097 C21.9046197,20.9223328 22.2110986,21.0763328 22.4517324,21.2990405 C21.9968028,21.4021021 21.4640563,21.4980559 20.8750423,21.5797944 C20.9732113,20.9081174 21.514338,20.9164097 21.514338,20.9164097 M20.6571549,20.1227174 C22.4960282,19.4309021 23.5208169,20.6617174 23.5208169,20.6617174 C23.599831,20.7612251 23.6537042,20.8619174 23.7075775,20.9637944 C23.4513803,21.0431636 23.1245493,21.1331944 22.7618028,21.2232251 C22.1033521,20.6048559 21.3084225,20.5527328 21.2425775,20.5397021 C20.7373662,20.4295328 20.6188451,20.1357482 20.6571549,20.1227174 M18.5429296,21.7634097 C18.8278592,21.1876867 19.4491972,20.8086097 19.6814507,20.4923174 C19.8119437,20.3146251 20.003493,20.3087021 20.003493,20.3087021 C20.2704648,20.3051482 20.324338,20.918779 20.4009577,21.6437636 C19.8358873,21.7077328 19.2085634,21.7456405 18.5429296,21.7634097 M15.6349718,21.642579 C15.7115915,20.9175944 15.7654648,20.3051482 16.0324366,20.3087021 C16.0324366,20.3087021 16.2227887,20.3146251 16.3532817,20.4923174 C16.584338,20.8086097 17.2056761,21.1876867 17.4918028,21.7634097 C16.826169,21.7456405 16.1964507,21.7077328 15.6349718,21.642579 M14.7921549,20.5397021 C14.7263099,20.5527328 13.9325775,20.6048559 13.2741268,21.2220405 C12.9113803,21.1320097 12.5833521,21.0407944 12.3271549,20.9614251 C12.3810282,20.8607328 12.4337042,20.7600405 12.5127183,20.6617174 C12.5127183,20.6617174 13.5399014,19.4309021 15.3787746,20.1227174 C15.413493,20.1357482 15.2973662,20.4295328 14.7921549,20.5397021 M13.5853944,21.2966713 C13.8260282,21.0751482 14.132507,20.9223328 14.5215915,20.9164097 C14.5215915,20.9164097 15.0603239,20.9093021 15.1596901,21.5786097 C14.5718732,21.4956867 14.0403239,21.4009174 13.5853944,21.2966713 M14.7813803,23.6244405 C14.7813803,23.6244405 13.5722254,24.0947328 12.7401831,23.2477328 C12.7401831,23.2477328 12.8000423,22.7158405 13.0251127,22.1626251 C13.6991268,22.3332097 14.3994789,22.4611482 15.1237746,22.5535482 C15.0746901,23.0096251 14.9741268,23.5960097 14.7813803,23.6244405 M12.5127183,22.5559174 C12.5127183,22.5559174 12.4396901,22.8686559 12.3822254,22.9373636 C12.3822254,22.9373636 12.1284225,22.4872097 12.1068732,21.9020097 C12.2996197,21.9636097 12.4887746,22.0299482 12.6851127,22.0844405 C12.621662,22.2313328 12.5570141,22.3770405 12.5127183,22.5559174 M9.66701408,21.7409021 C9.66701408,21.7409021 9.61074648,21.7894713 9.54969014,21.7160251 C8.94870423,20.9863021 9.8645493,20.1570713 10.1578592,20.6617174 C10.1578592,20.6617174 9.81187324,20.6747482 9.8501831,20.9152251 C9.8501831,20.9152251 9.85616901,21.1639944 10.1662394,21.1485944 C10.1662394,21.1485944 10.5996197,21.1047636 10.496662,20.5894559 C10.496662,20.5894559 10.4403944,20.3560867 10.1758169,20.2767174 C10.1758169,20.2767174 9.418,20.0729636 9.09715493,20.7256867 C9.09715493,20.7256867 9.03011268,20.8820559 9.02053521,21.1177944 C8.93194366,21.0479021 8.83377465,20.9922251 8.72602817,20.9756405 C8.58356338,20.8287482 8.33694366,19.6322867 8.49497183,19.0162867 C9.65384507,18.7769944 10.0094085,17.8304867 10.0632817,17.5627636 C10.2991268,17.638579 10.4356056,17.9063021 10.4475775,18.0200251 C10.4655352,18.1740251 10.3937042,18.3351328 10.4846901,18.4618867 C10.6199718,18.6478713 10.9192676,18.8172713 11.104831,18.9404713 C11.1658873,18.9807482 12.0158873,19.6311021 12.124831,19.6536097 C12.2469437,19.6773021 12.3199718,19.5884559 12.4265211,19.6062251 C12.4636338,19.6145174 12.4899718,19.6417636 12.5187042,19.6630867 C12.5187042,19.6630867 12.5797606,19.7246867 12.6659577,19.7851021 C12.4432817,19.9308097 12.1535634,20.1404867 11.7680704,20.4781021 C11.7680704,20.4781021 11.4747606,20.8548097 9.66701408,21.7409021 M30.962507,22.0951021 C30.7709577,21.8652867 30.2621549,21.9790097 30.2621549,21.9790097 C30.5363099,21.1746559 29.7844789,20.9602405 29.7844789,20.9602405 C29.5151127,20.8891636 29.3391268,20.9389174 29.223,21.0171021 C29.223,21.0171021 29.2182113,21.0206559 29.2146197,21.0230251 C29.2134225,21.0253944 29.2110282,21.026579 29.2110282,21.0289482 C29.1906761,21.041979 29.1727183,21.0538251 29.1571549,21.0715944 C29.0901127,21.1414867 29.0470141,21.2362559 29.0470141,21.3393174 C29.0470141,21.5525482 29.223,21.7266867 29.4396901,21.7266867 C29.5222958,21.7266867 29.6001127,21.6994405 29.6635634,21.6567944 C29.7413803,21.6023021 29.7976479,21.5205636 29.818,21.426979 C29.9233521,21.4921328 29.9628592,21.6070405 29.9628592,21.6070405 C30.1819437,22.2929328 29.4025775,22.5393328 29.4025775,22.5393328 C27.679831,23.0510867 26.627507,22.1721021 26.627507,22.1721021 L26.928,22.012179 C27.0321549,21.9671636 27.1267324,21.9541328 27.2009577,21.9541328 C27.1985634,21.9683482 27.1949718,21.9861174 27.1949718,22.0038867 C27.1949718,22.1875021 27.3506056,22.3379482 27.5373662,22.3379482 C27.7241268,22.3379482 27.8785634,22.1875021 27.8785634,22.0038867 C27.876169,21.8652867 27.8103239,21.796579 27.8103239,21.796579 C27.6091972,21.4968713 26.9136338,21.6958867 26.9136338,21.6958867 C27.1446901,21.1308251 26.9375775,20.7256867 26.9375775,20.7256867 C26.6179296,20.0729636 25.8589155,20.2767174 25.8589155,20.2767174 C25.5931408,20.3560867 25.5380704,20.5894559 25.5380704,20.5894559 C25.4351127,21.1047636 25.868493,21.1485944 25.868493,21.1485944 C26.1797606,21.1639944 26.1821549,20.9152251 26.1821549,20.9152251 C26.2228592,20.6747482 25.8780704,20.6617174 25.8780704,20.6617174 C26.1689859,20.1570713 27.084831,20.9863021 26.4862394,21.7160251 C26.4227887,21.7894713 26.3665211,21.7409021 26.3665211,21.7409021 C25.2938451,21.2149328 24.7622958,20.872579 24.5013099,20.6783021 C24.476169,20.3892559 24.221169,20.2435482 24.2702535,20.1653636 C24.3121549,20.148779 24.4641972,20.2234097 24.548,20.0990251 C24.5779296,20.0516405 24.6485634,19.5955636 24.7060282,19.270979 C25.6553944,19.7009944 26.4646901,19.5695021 26.627507,19.517379 C26.7113099,19.4842097 26.7771549,19.424979 26.7783521,19.3029636 C26.7939155,18.9452097 25.8589155,16.8425174 25.8325775,16.1009482 C26.274338,16.3177328 26.5472958,15.6425021 26.627507,15.436379 C27.2213099,15.7052867 27.4260282,21.1604405 27.8833521,21.3428713 C28.1132113,21.4352713 28.203,21.0644867 28.2233521,20.9945944 C28.9596197,18.5637636 28.9847606,16.1957174 28.9356761,15.4020251 C28.8626479,14.1569944 28.7608873,13.0434559 28.458,12.0187636 C28.2712394,11.3885482 27.9120845,10.1020559 27.0692676,9.92673282 C26.6765915,9.84380974 26.3772958,10.2063021 26.3844789,10.5332559 C26.3904648,10.816379 26.588,10.9526097 26.5006056,11.2298097 C26.3952535,11.4122405 26.2899014,11.6088867 26.2384225,11.8114559 C26.1881408,12.0140251 26.3701127,12.0981328 26.3114507,12.3125482 C26.0456761,12.2734559 25.9127887,12.5032713 25.4937746,12.3990251 C25.7667324,12.2734559 25.7703239,11.5046405 25.4351127,11.3719636 C25.3860282,11.3530097 25.3285634,11.3447174 25.3201831,11.3008867 C25.3201831,11.3008867 25.4279296,11.1871636 25.4818028,11.0758097 C25.6733521,10.6872559 25.6721549,10.3437174 25.5201127,10.0854713 C25.6577887,10.0973174 25.8026479,9.84499436 25.8218028,9.64479436 L25.8241972,9.64597897 L25.8241972,9.63176359 L25.8241972,9.63057897 C25.8277887,9.57727128 25.8194085,9.40076359 25.8996197,9.23728667 C25.9247606,9.18397897 25.8996197,9.12119436 25.8529296,9.09750205 C25.8050423,9.07617897 25.7415915,9.09513282 25.7152535,9.14962513 C25.6326479,9.32257897 25.4351127,9.22662513 25.5189155,9.05367128 C25.5440563,8.99799436 25.5189155,8.93994821 25.4722254,8.91507128 C25.424338,8.89493282 25.3620845,8.91033282 25.3357465,8.96600974 C25.2567324,9.1318559 25.0651831,9.0394559 25.1441972,8.87360974 C25.169338,8.81911744 25.1441972,8.75751744 25.0987042,8.73619436 C25.0532113,8.71487128 24.9885634,8.73264051 24.9610282,8.78831744 C24.8796197,8.95771744 24.6808873,8.86294821 24.763493,8.69354821 C24.7886338,8.63668667 24.763493,8.57627128 24.718,8.55257897 C24.6713099,8.53362513 24.6090563,8.55020974 24.5803239,8.60351744 C24.4929296,8.78476359 24.4318732,8.86057897 24.3408873,8.93284051 C24.1553239,8.96482513 24.2044085,9.17687128 24.2259577,9.32020974 C23.8775775,9.24557897 23.6165915,9.50856359 23.6058169,9.74311744 L23.5663099,9.74311744 C23.2789859,9.75022513 23.0036338,9.89711744 23.0263803,10.1601021 C23.0347606,10.3093636 23.2119437,10.4941636 23.2789859,10.4965328 C23.3101127,10.4858713 23.2634225,10.3377944 23.4130704,10.3283174 C23.5495493,10.3223944 23.7518732,10.4361174 23.7770141,10.5652405 C23.8069437,10.7109482 23.684831,11.062779 24.1553239,11.1149021 C24.1553239,11.1149021 24.1517324,11.185979 24.1445493,11.2617944 C23.9769437,11.2499482 23.9326479,11.2404713 23.7662394,11.2653482 C23.469338,11.3127328 23.0622958,11.478579 22.9629296,11.7699944 C22.9437746,11.8185636 22.9353944,11.9204405 22.9437746,11.9903328 C22.9497606,12.0507482 23.0060282,12.1241944 22.9988451,12.1976405 C22.9928592,12.2319944 22.9306056,12.3054405 22.9054648,12.3291328 C22.7821549,12.4570713 22.553493,12.5790867 22.3499718,12.5897482 C22.1260986,12.6004097 21.9082113,12.4570713 21.8196197,12.3386097 C21.5215211,11.9417636 21.9082113,11.2546867 21.9022254,10.9988097 C21.8842676,10.3176559 21.0151127,10.7227944 20.6715211,10.9004867 C20.2608873,11.1149021 19.9340563,11.4572559 19.657507,11.7948713 C19.506662,11.9796713 19.336662,12.2130405 19.2528592,12.4096867 C19.2372958,12.4464097 19.2037746,12.4523328 19.1678592,12.4511482 C19.3438451,12.5293328 19.6551127,12.6454251 19.9005352,12.6466097 C19.9005352,12.6466097 20.3818028,12.7117636 20.7265915,12.4286405 C20.7265915,12.4286405 20.7756761,12.3859944 20.8439155,12.3859944 C20.893,12.3859944 20.9372958,12.4061328 20.9756056,12.4416713 C20.9803944,12.4464097 21.023493,12.4807636 21.0749718,12.5222251 C21.1049014,12.5471021 21.1432113,12.5767174 21.1827183,12.6075174 C21.2042676,12.6241021 21.2246197,12.6395021 21.246169,12.6560867 C21.3036338,12.7011021 21.3658873,12.7484867 21.4281408,12.7958713 C21.4389155,12.8041636 21.4496901,12.8136405 21.461662,12.8219328 C21.5299014,12.8740559 21.5969437,12.9249944 21.6568028,12.9688251 C21.7274366,13.0209482 21.7944789,13.0707021 21.8327887,13.0967636 L21.8363803,13.0991328 C21.8435634,13.1050559 21.8615211,13.1216405 21.867507,13.1477021 C21.8687042,13.1737636 21.8567324,13.203379 21.8327887,13.2329944 C21.8315915,13.234179 21.7956761,13.2744559 21.7406056,13.341979 C21.6256761,13.4865021 21.4317324,13.7708097 21.2832817,14.1179021 C21.4449014,14.3974713 21.7178592,14.7303482 22.1081408,14.7350867 C22.4218028,14.7374559 22.5487042,14.5834559 22.5953944,14.3844405 C22.6001831,14.389179 22.6169437,14.4105021 22.6205352,14.4116867 C22.6576479,14.3773328 22.8300423,15.3001482 23.057507,15.5512867 C22.8444085,15.6484251 22.5151831,15.9789328 22.6935634,16.8899021 C22.5187746,16.7501174 22.1955352,16.5084559 22.0410986,16.3509021 C21.9477183,16.1625482 21.7669437,15.7171328 21.246169,15.6744867 C21.3227887,15.9043021 21.4317324,16.160179 21.5981408,16.4468559 C21.6017324,16.452779 21.9201831,17.0320559 21.8208169,17.6871482 C22.0387042,17.4668097 22.0051831,16.8602867 22.0051831,16.8602867 C22.0135634,16.8519944 22.043493,16.8425174 22.0530704,16.8401482 C22.0973662,16.8365944 22.3164507,17.2583174 22.6935634,17.345979 C23.1844085,18.177579 23.737507,18.7059174 24.2726479,19.039979 C24.2630704,19.2413636 24.2870141,19.7211328 24.1565211,19.7211328 C23.7351127,19.8123482 23.3484225,19.532779 22.978493,19.5517328 C22.946169,19.5375174 22.9138451,19.5221174 22.9138451,19.5221174 C21.3191972,18.762779 19.2181408,20.3939944 18.8673662,20.7091021 C18.683,20.8785021 18.4699014,20.6475021 18.4699014,20.6475021 C18.343,20.4911328 18.1789859,20.4200559 18.0173662,20.4390097 C17.8569437,20.4200559 17.6905352,20.4911328 17.5660282,20.6475021 C17.5660282,20.6475021 17.3505352,20.8785021 17.166169,20.7091021 C16.8357465,20.4093944 14.9310282,18.9511328 13.373493,19.4486713 C13.3699014,19.363379 13.1591972,19.3207328 13.1017324,19.2994097 C12.9772254,19.2638713 12.8694789,19.1679174 12.791662,19.1300097 C12.621662,19.0459021 12.347507,19.0980251 12.1547606,19.0755174 C12.0781408,19.0636713 11.9727887,19.024579 11.9057465,18.9854867 C11.6567324,18.8338559 11.3718028,18.6478713 11.2125775,18.4251636 C11.1886338,18.3896251 11.1263803,18.3055174 11.1132113,18.2913021 C11.0365915,18.1953482 10.9982817,18.1242713 10.9396197,17.9643482 C10.8546197,17.6610867 10.9863099,17.3353174 11.0318028,17.0261328 C11.0641268,16.7975021 11.0569437,16.7844713 11.0772958,16.5392559 C12.066169,16.2016405 12.4696197,15.4683636 12.7006761,15.0774405 C12.7222254,15.0478251 12.7844789,14.9222559 12.7844789,14.9222559 C12.8275775,14.9293636 12.8718732,14.9329174 12.9185634,14.9352867 C13.3136338,14.9376559 13.5806056,14.7196867 14.0127887,14.7706251 C14.0127887,14.7943174 14.0702535,14.974379 14.3503944,15.0881021 C14.3599718,15.3688559 14.3803239,15.6010405 14.4880704,15.8178251 C14.5108169,15.8557328 14.5419437,15.8877174 14.5622958,15.9197021 C14.7478592,15.4683636 14.7969437,15.1165328 14.8017324,14.9056713 C14.7885634,14.8867174 14.7765915,14.8618405 14.7694085,14.820379 C14.6760282,14.3441636 14.4509577,14.2138559 14.2414507,14.0942097 C14.1372958,14.0373482 14.021169,14.0207636 13.9218028,13.9485021 C13.7673662,13.8442559 13.6045493,13.7317174 13.5027887,13.5362559 C13.5027887,13.5362559 13.5530704,13.4900559 13.6069437,13.4225328 C13.883493,13.1370405 14.021169,12.7153174 14.1229296,12.2545021 C14.3336338,11.9690097 14.9202535,12.0803636 15.1441268,12.1206405 C15.2003944,12.1277482 15.2985634,12.1502559 15.3440563,12.1846097 C15.4063099,12.2272559 15.4218732,12.3267636 15.5092676,12.3634867 C15.6014507,12.4002097 15.7056056,12.3729636 15.8181408,12.3634867 C15.8600423,12.4096867 15.8827887,12.4736559 15.9115211,12.5328867 C15.9115211,12.5328867 15.9426479,12.5861944 16.0001127,12.6466097 C16.2754648,12.6418713 16.6441972,12.4973482 16.7974366,12.4203482 C16.7794789,12.4085021 16.7639155,12.3978405 16.754338,12.3848097 C16.6322254,12.2296251 16.446662,12.0578559 16.2742676,12.0306097 C16.0551831,11.9950713 16.0096901,11.801979 15.8001831,11.7593328 C15.7463099,11.7463021 15.5607465,11.7178713 15.498493,11.740379 C15.0363803,11.8007944 14.7083521,11.6266559 14.276169,11.5958559 C13.864338,11.5674251 13.851169,11.8458097 13.7015211,12.0744405 C13.6464507,12.1609174 13.5806056,12.2616097 13.5123662,12.3267636 C13.399831,12.4357482 13.2669437,12.4393021 13.1292676,12.5423636 L13.0658169,12.3729636 C13.027507,12.2319944 12.974831,12.0862867 12.8814507,11.9488713 C12.6575775,11.601779 12.4037746,11.3328713 11.9057465,11.2191482 C11.811169,11.1812405 11.798,11.1753174 11.7345493,11.1255636 C11.654338,11.0639636 11.7106056,10.9893328 11.7345493,10.9822251 C11.8758169,10.9016713 12.1200423,10.9301021 12.2804648,10.8566559 C12.6767324,10.6730405 12.536662,10.3413482 12.3822254,10.3152867 C12.1822958,10.277379 11.8219437,10.1837944 11.752507,10.1423328 C11.6555352,10.0831021 11.4891268,9.78339436 11.3322958,9.71113282 C11.157507,9.66493282 11.2185634,9.38417897 11.0569437,9.32257897 C10.9887042,9.31073282 10.8869437,9.34508667 10.7744085,9.40076359 C10.7672254,9.34153282 10.7253239,9.02287128 10.5481408,8.91862513 C10.4140563,8.84399436 10.366169,8.96008667 10.3721549,9.03708667 C10.379338,9.10460974 10.5672958,9.19819436 10.6032113,9.49908667 C10.5696901,9.52040974 10.5397606,9.53699436 10.5074366,9.56068667 C10.4810986,9.43630205 10.424831,9.24320974 10.2955352,9.16739436 C10.1614507,9.09157897 10.1135634,9.2088559 10.1207465,9.28467128 C10.1267324,9.34982513 10.2919437,9.43511744 10.3434225,9.68862513 C10.3051127,9.72179436 10.2668028,9.75377897 10.2308873,9.78694821 C9.96391549,9.71468667 9.89328169,9.53580974 9.82623944,9.52514821 C9.75201408,9.50856359 9.62990141,9.54528667 9.69215493,9.68388667 C9.75680282,9.82367128 9.95673239,9.89948667 10.0776479,9.93384051 C10.0513099,9.96464051 10.0273662,9.99188667 10.0046197,10.0215021 C9.69574648,9.95990205 9.62032394,9.76088667 9.55208451,9.74548667 C9.47546479,9.7324559 9.35335211,9.76917897 9.41560563,9.90659436 C9.50659155,10.1008713 9.85616901,10.1755021 9.88849296,10.1814251 C9.83821127,10.2643482 9.80588732,10.3401636 9.81785915,10.3946559 C9.57722535,10.3674097 9.15222535,10.4941636 9.23243662,10.7737328 C9.3114507,10.8305944 9.5951831,10.6019636 9.85616901,10.7299021 C10.0285634,10.9940713 10.3051127,11.0059174 10.366169,11.0544867 C10.4619437,11.1291174 10.477507,11.2653482 10.5218028,11.3885482 C10.5996197,11.617179 10.7600423,11.8007944 10.8953239,12.0033636 C11.0425775,12.2248867 11.1970141,12.4570713 11.3514507,12.6513482 C11.3706056,12.7034713 11.3873662,12.7591482 11.3777887,12.8420713 C11.2018028,13.1192713 10.6738451,13.4426713 10.4571549,13.6428713 C10.2380704,13.8466251 8.17292958,15.4032097 7.91314085,16.0808097 C7.85687324,16.2324405 7.82215493,16.4279021 7.83053521,16.6304713 C7.70483099,16.6956251 7.42828169,16.8046097 7.34088732,16.6825944 C7.18046479,16.4634405 7.49292958,16.2975944 7.42469014,16.0855482 C7.3923662,16.0026251 7.2714507,15.9493174 7.19602817,16.0026251 C6.68123944,16.3686713 6.94701408,17.0154713 7.2714507,17.1623636 C7.62940845,17.3092559 7.68088732,16.9278097 7.9586338,17.0818097 C8.02447887,17.1197174 8.67933803,17.6978097 8.56919718,18.1562559 C8.56321127,18.1799482 8.53807042,18.2462867 8.52490141,18.2640559 C8.38123944,18.439379 8.14180282,18.5756097 7.97778873,18.7414559 C7.63659155,18.9558713 8.30222535,20.3004097 8.24715493,20.9898559 C8.20884507,21.2528405 8.46623944,21.2232251 8.62546479,21.6331021 C8.46264789,21.6378405 8.30461972,21.6781174 8.22440845,21.796579 C8.22440845,21.796579 8.15616901,21.8652867 8.15616901,22.0038867 C8.15616901,22.1875021 8.30821127,22.3379482 8.49616901,22.3379482 C8.68412676,22.3379482 8.8373662,22.1875021 8.8373662,22.0038867 C8.8373662,21.9861174 8.83616901,21.9683482 8.83377465,21.9541328 C8.908,21.9541328 9.00377465,21.9671636 9.10673239,22.012179 L9.40722535,22.1721021 C9.40722535,22.1721021 8.35370423,23.0510867 6.63335211,22.5393328 C6.63335211,22.5393328 5.85398592,22.2929328 6.07187324,21.6070405 C6.07187324,21.6070405 6.1101831,21.4921328 6.21673239,21.426979 C6.23708451,21.5205636 6.29335211,21.6023021 6.36997183,21.6567944 C6.43461972,21.6994405 6.51243662,21.7266867 6.59623944,21.7266867 C6.81053521,21.7266867 6.98532394,21.5525482 6.98532394,21.3393174 C6.98532394,21.2362559 6.9458169,21.1414867 6.87757746,21.0715944 C6.8608169,21.0538251 6.84405634,21.041979 6.82370423,21.0289482 C6.82370423,21.026579 6.82130986,21.0253944 6.82130986,21.0253944 C6.81532394,21.0206559 6.81412676,21.0194713 6.81412676,21.0194713 C6.69560563,20.9389174 6.51842254,20.8891636 6.24905634,20.9602405 C6.24905634,20.9602405 5.49842254,21.1746559 5.7701831,21.9790097 C5.7701831,21.9790097 5.26497183,21.8652867 5.07222535,22.0951021 C5.07222535,22.0951021 5.00638028,22.1685482 5.0123662,22.2846405 L5.0123662,22.289379 L5.0123662,22.2929328 C5.01715493,22.3403174 5.03032394,22.3948097 5.06623944,22.4575944 C5.12011268,22.5322251 5.20750704,22.5831636 5.30807042,22.5831636 C5.40025352,22.5831636 5.48166197,22.5405174 5.53673239,22.474179 C5.53673239,22.4718097 5.53912676,22.4718097 5.53912676,22.4718097 C5.56067606,22.4457482 5.62173239,22.4102097 5.71391549,22.504979 C6.85483099,23.6813021 8.71405634,23.1967944 9.74722535,22.4078405 C9.74722535,22.4078405 10.3182817,21.8380405 10.9563803,21.488579 C11.2053944,21.5940097 11.4675775,21.673379 11.7237746,21.7645944 C11.7058169,22.1306405 11.7824366,22.6554251 12.1954648,23.2643174 C12.1954648,23.2643174 11.9045493,23.798579 11.412507,23.5047944 C11.412507,23.5047944 11.0497606,23.228779 11.3586338,22.8947174 C11.3586338,22.8947174 11.5645493,22.7241328 11.654338,22.9373636 C11.5489859,22.9444713 11.4627887,23.0297636 11.4627887,23.136379 C11.4627887,23.2465482 11.5525775,23.3330251 11.6615211,23.3330251 C11.7704648,23.3330251 11.8554648,23.2501021 11.8602535,23.1470405 C11.8710282,23.0664867 11.8758169,22.8627328 11.6986338,22.7146559 C11.6986338,22.7146559 11.5418028,22.5464405 11.2460986,22.5938251 C10.8127183,22.6601636 10.5672958,23.5557328 11.4232817,23.9277021 C11.4232817,23.9277021 12.0949014,24.2309636 12.4420845,23.7346097 C12.4420845,23.7346097 12.4360986,23.6623482 12.5653944,23.7855482 C13.2777183,24.4678867 14.8651831,24.2700559 15.4972958,23.8056867 C15.4972958,23.8056867 15.6565211,23.7049944 15.8313099,23.6244405 C15.8396901,23.8862405 16.0551831,24.1006559 16.3257465,24.1006559 C16.597507,24.1006559 16.8201831,23.8803174 16.8201831,23.6102251 C16.8201831,23.3685636 16.6441972,23.1695482 16.4107465,23.1280867 C16.3999718,23.1245328 16.0851127,23.0368713 15.6241972,23.3117021 C15.6241972,23.3117021 15.1381408,23.6149636 15.1656761,23.567579 C15.3296901,23.3128867 15.4314507,22.9693482 15.5008873,22.6021174 C16.1940563,22.6767482 16.9051831,22.7265021 17.6414507,22.7430867 C17.6330704,22.9551328 17.6031408,23.213379 17.5205352,23.4112097 C17.5205352,23.4112097 17.2607465,23.5178251 17.2535634,23.6990713 C17.2535634,23.6990713 17.224831,23.8317482 17.4558873,24.0153636 C17.4558873,24.0153636 17.6246901,24.198979 17.6737746,24.3435021 C17.6737746,24.3435021 17.6869437,24.5413328 17.9646901,24.5413328 C17.9850423,24.5413328 18.0006056,24.5401482 18.0173662,24.5365944 C18.0353239,24.5401482 18.0520845,24.5413328 18.0712394,24.5413328 C18.3477887,24.5413328 18.3609577,24.3435021 18.3609577,24.3435021 C18.4100423,24.198979 18.5788451,24.0153636 18.5788451,24.0153636 C18.8087042,23.8317482 18.7799718,23.6990713 18.7799718,23.6990713 C18.7763803,23.5178251 18.513,23.4112097 18.513,23.4112097 C18.4315915,23.213379 18.401662,22.9551328 18.3920845,22.7430867 C19.1295493,22.7265021 19.8406761,22.6779328 20.5338451,22.6033021 C20.6032817,22.9705328 20.7050423,23.3140713 20.8690563,23.567579 C20.8977887,23.6149636 20.4117324,23.3117021 20.4117324,23.3117021 C19.9496197,23.0368713 19.6323662,23.1245328 19.6215915,23.1280867 C19.389338,23.1695482 19.2157465,23.3685636 19.2157465,23.6102251 C19.2157465,23.8803174 19.4372254,24.1006559 19.7089859,24.1006559 C19.9783521,24.1006559 20.1950423,23.8862405 20.2022254,23.6244405 C20.3782113,23.7049944 20.5374366,23.8056867 20.5374366,23.8056867 C21.1671549,24.2700559 22.7570141,24.4678867 23.469338,23.7855482 C23.5986338,23.6623482 23.5926479,23.7346097 23.5926479,23.7346097 C23.939831,24.2309636 24.6126479,23.9277021 24.6126479,23.9277021 C25.4662394,23.5557328 25.2220141,22.6601636 24.789831,22.5938251 C24.4941268,22.5464405 24.3349014,22.7146559 24.3349014,22.7146559 C24.1601127,22.8627328 24.1637042,23.0664867 24.1744789,23.1470405 C24.1780704,23.2501021 24.2654648,23.3330251 24.3720141,23.3330251 C24.4809577,23.3330251 24.5719437,23.2465482 24.5719437,23.136379 C24.5719437,23.0297636 24.4857465,22.9444713 24.3803944,22.9373636 C24.4701831,22.7241328 24.6760986,22.8947174 24.6760986,22.8947174 C24.9849718,23.228779 24.6222254,23.5047944 24.6222254,23.5047944 C24.1301831,23.798579 23.8392676,23.2643174 23.8392676,23.2643174 C24.2510986,22.6577944 24.3289155,22.1330097 24.3109577,21.7681482 C24.5695493,21.6769328 24.8329296,21.596379 25.0819437,21.4897636 C25.7188451,21.8392251 26.287507,22.4078405 26.287507,22.4078405 C27.3194789,23.1967944 29.1787042,23.6813021 30.3208169,22.504979 C30.4118028,22.4102097 30.4752535,22.4457482 30.4956056,22.4718097 C30.4956056,22.4718097 30.498,22.4718097 30.498,22.474179 C30.5530704,22.5405174 30.6344789,22.5831636 30.726662,22.5831636 C30.8272254,22.5831636 30.9134225,22.5322251 30.968493,22.4575944 C31.0044085,22.3948097 31.0175775,22.3403174 31.0238125,22.2929328 L31.0238125,22.2917482 L31.0238125,22.2846405 C31.0283521,22.1685482 30.962507,22.0951021 30.962507,22.0951021" id="Fill-38" fill="#FFFFFF" mask="url(#mask-2)"></path>
                    <path d="M42.5164014,10.5451021 L42.4218239,6.70457897 L42.3930915,6.70457897 C42.3128803,7.18908667 42.2314718,7.53973282 42.1692183,7.80390205 L41.5155563,10.5451021 L40.2010493,10.5451021 L39.5749225,7.80390205 C39.512669,7.53973282 39.4312606,7.18908667 39.3438662,6.70457897 L39.3151338,6.70457897 L39.2540775,10.5451021 L38.4375986,10.5451021 L38.6135845,5.99617897 L40.1471761,5.99617897 C40.1471761,5.99617897 40.649993,8.28840974 40.9157676,9.75733282 L40.9373169,9.75733282 C41.2437958,8.29551744 41.8423873,5.99617897 41.8423873,5.99617897 L43.3472465,5.99617897 L43.5256268,10.5451021 L42.5164014,10.5451021 Z" id="Fill-39" fill="#FFFFFF" mask="url(#mask-2)"></path>
                    <path d="M44.5388028,6.69830051 L45.4378873,6.69830051 L45.4378873,5.8963159 L44.5388028,5.8963159 L44.5388028,6.69830051 Z M44.566338,10.5447467 L44.566338,7.87699282 L44.1784507,7.79643897 L44.1784507,7.24322359 L45.4522535,7.24322359 L45.4522535,10.5447467 L44.566338,10.5447467 Z" id="Fill-40" fill="#FFFFFF" mask="url(#mask-2)"></path>
                    <path d="M48.3327958,10.5451021 L48.3327958,8.58456359 C48.3327958,8.08584051 48.1424437,7.85010205 47.733007,7.85010205 C47.5019507,7.85010205 47.3044155,7.95197897 47.1475845,8.05267128 L47.1475845,10.5451021 L46.2556831,10.5451021 L46.2556831,7.24357897 L46.8674437,7.24357897 L47.0051197,7.62028667 C47.1954718,7.39876359 47.563007,7.1760559 48.059838,7.1760559 C48.9050493,7.1760559 49.2390634,7.66767128 49.2390634,8.50282513 L49.2390634,10.5451021 L48.3327958,10.5451021 Z" id="Fill-41" fill="#FFFFFF" mask="url(#mask-2)"></path>
                    <path d="M50.2110563,6.69830051 L51.1101408,6.69830051 L51.1101408,5.8963159 L50.2110563,5.8963159 L50.2110563,6.69830051 Z M50.2397887,10.5447467 L50.2397887,7.87699282 L49.8519014,7.79643897 L49.8519014,7.24322359 L51.124507,7.24322359 L51.124507,10.5447467 L50.2397887,10.5447467 Z" id="Fill-42" fill="#FFFFFF" mask="url(#mask-2)"></path>
                    <path d="M52.7040704,8.11225744 C52.7040704,8.6251959 54.1478732,8.47001128 54.1478732,9.54801128 C54.1478732,10.1486113 53.6989296,10.6129805 52.8333662,10.6129805 C52.4311127,10.6129805 52.0575915,10.4992574 51.8325211,10.3701344 L52.0168873,9.75768821 C52.1737183,9.86430359 52.5005493,9.98631897 52.8070282,9.98631897 C53.0991408,9.98631897 53.2966761,9.82402667 53.2966761,9.62145744 C53.2966761,9.02914974 51.8744225,9.22461128 51.8744225,8.09922667 C51.8744225,7.61353436 52.2479437,7.17641128 53.1470282,7.17641128 C53.4942113,7.17641128 53.8557606,7.24393436 54.0868169,7.33870359 L53.9647042,7.9783959 C53.7396338,7.87770359 53.453507,7.8089959 53.1613944,7.8089959 C52.8549155,7.8089959 52.7040704,7.92390359 52.7040704,8.11225744" id="Fill-43" fill="#FFFFFF" mask="url(#mask-2)"></path>
                    <path d="M56.0828803,10.6133359 C55.4902746,10.6133359 55.1023873,10.3373205 55.1023873,9.50690513 L55.1023873,7.87095128 L54.6055563,7.87095128 L54.6055563,7.24310513 L55.1023873,7.24310513 L55.1023873,6.6709359 L55.9799225,6.38781282 L55.9799225,7.24310513 L56.8730211,7.24310513 L56.8730211,7.87095128 L55.9799225,7.87095128 L55.9799225,9.48795128 C55.9799225,9.71658205 56.0960493,9.86465897 56.3342887,9.86465897 C56.5174577,9.86465897 56.709007,9.81016667 56.8454859,9.74382821 L56.9819648,10.3918128 C56.7844296,10.5043513 56.4372465,10.6133359 56.0828803,10.6133359" id="Fill-44" fill="#FFFFFF" mask="url(#mask-2)"></path>
                    <path d="M58.7730704,7.82309282 C58.3301127,7.82309282 58.1469437,8.22112359 58.1469437,8.61204667 L59.3644789,8.61204667 C59.3644789,8.18676974 59.2363803,7.82309282 58.7730704,7.82309282 L58.7730704,7.82309282 Z M58.1469437,9.13090821 C58.1469437,9.65569282 58.4462394,9.94592359 59.0041268,9.94592359 C59.3453239,9.94592359 59.692507,9.81798513 59.9858169,9.66990821 L60.1546197,10.2894621 C59.8756761,10.437539 59.4195493,10.6128621 58.8963803,10.6128621 C57.8668028,10.6128621 57.2538451,9.97909282 57.2538451,8.88687744 C57.2538451,7.87047744 57.7506761,7.17629282 58.8197606,7.17629282 C59.8289859,7.17629282 60.2240563,7.91667744 60.2240563,8.74590821 L60.2240563,9.13090821 L58.1469437,9.13090821 Z" id="Fill-45" fill="#FFFFFF" mask="url(#mask-2)"></path>
                    <path d="M62.7912958,7.97804051 C62.6811549,7.94487128 62.5243239,7.92354821 62.3746761,7.92354821 C62.1364366,7.92354821 61.9257324,8.02542513 61.7760845,8.1462559 L61.7760845,10.5451021 L60.890169,10.5451021 L60.890169,7.24357897 L61.5103099,7.24357897 L61.6060845,7.68780974 L61.6252394,7.68780974 C61.7281972,7.4532559 62.027493,7.18316359 62.4225634,7.18316359 C62.5997465,7.18316359 62.7362254,7.21040974 62.8116479,7.22936359 L62.7912958,7.97804051 Z" id="Fill-46" fill="#FFFFFF" mask="url(#mask-2)"></path>
                    <path d="M63.5740141,6.69830051 L64.4730986,6.69830051 L64.4730986,5.8963159 L63.5740141,5.8963159 L63.5740141,6.69830051 Z M63.6015493,10.5447467 L63.6015493,7.87699282 L63.213662,7.79643897 L63.213662,7.24322359 L64.4862676,7.24322359 L64.4862676,10.5447467 L63.6015493,10.5447467 Z" id="Fill-47" fill="#FFFFFF" mask="url(#mask-2)"></path>
                    <path d="M67.3812958,8.88735128 C67.3812958,8.09247436 67.1430563,7.81645897 66.7264366,7.81645897 C66.3110141,7.81645897 66.0799577,8.09958205 66.0799577,8.88735128 C66.0799577,9.65498205 66.2918592,9.96535128 66.7264366,9.96535128 C67.1622113,9.96535128 67.3812958,9.67630513 67.3812958,8.88735128 M68.2935493,8.88735128 C68.2935493,10.0127359 67.7212958,10.6133359 66.7264366,10.6133359 C65.7255915,10.6133359 65.1605211,10.0198436 65.1605211,8.88735128 C65.1605211,7.91715128 65.7064366,7.17676667 66.7264366,7.17676667 C67.7344648,7.17676667 68.2935493,7.91715128 68.2935493,8.88735128" id="Fill-48" fill="#FFFFFF" mask="url(#mask-2)"></path>
                    <path d="M39.8472817,17.4816174 C39.2331268,17.4816174 38.7171408,17.2648328 38.3484085,16.9959251 L38.6884085,16.3029251 C38.9553803,16.5315559 39.4378451,16.7400482 39.8604507,16.7400482 C40.2830563,16.7400482 40.5691831,16.4841713 40.5691831,16.1406328 C40.5691831,15.1775405 38.4441831,15.6549405 38.4441831,14.0509713 C38.4441831,13.3638944 38.9889014,12.7976482 40.065169,12.7976482 C40.6027042,12.7976482 41.0600282,12.9125559 41.4335493,13.1080174 L41.1342535,13.8152328 C40.8816479,13.6671559 40.4734085,13.565279 40.0508028,13.565279 C39.6353803,13.565279 39.3636197,13.7015097 39.3636197,14.0379405 C39.3636197,14.8529559 41.5017887,14.5366636 41.5017887,16.0861405 C41.5017887,16.8075713 40.8960141,17.4816174 39.8472817,17.4816174" id="Fill-49" fill="#FFFFFF" mask="url(#mask-2)"></path>
                    <path d="M43.5720775,14.6912559 C43.1291197,14.6912559 42.9459507,15.0892867 42.9459507,15.4802097 L44.1646831,15.4802097 C44.1646831,15.0561174 44.0353873,14.6912559 43.5720775,14.6912559 L43.5720775,14.6912559 Z M42.9459507,15.9990713 C42.9459507,16.5250405 43.2452465,16.8140867 43.8031338,16.8140867 C44.144331,16.8140867 44.4927113,16.6873328 44.7848239,16.5380713 L44.9548239,17.1576251 C44.6758803,17.3057021 44.2197535,17.4810251 43.6953873,17.4810251 C42.6658099,17.4810251 42.0528521,16.8472559 42.0528521,15.7562251 C42.0528521,14.7386405 42.5496831,14.0444559 43.6199648,14.0444559 C44.627993,14.0444559 45.0230634,14.7860251 45.0230634,15.6140713 L45.0230634,15.9990713 L42.9459507,15.9990713 Z" id="Fill-50" fill="#FFFFFF" mask="url(#mask-2)"></path>
                    <path d="M48.352669,17.1912682 C48.1623169,17.2931451 47.7133732,17.481499 47.2093592,17.481499 C46.2145,17.481499 45.6147113,16.9211759 45.6147113,15.7626221 C45.6147113,14.6846221 46.2145,14.0449297 47.2021761,14.0449297 C47.6439366,14.0449297 48.0270352,14.1325913 48.3466831,14.3138374 L48.1156268,14.9132528 C47.8773873,14.7722836 47.5709085,14.7118682 47.2775986,14.7118682 C46.8142887,14.7118682 46.5209789,15.0222374 46.5209789,15.7626221 C46.5209789,16.511299 46.7999225,16.8145605 47.2835845,16.8145605 C47.6307676,16.8145605 47.9719648,16.6866221 48.1886549,16.5657913 L48.352669,17.1912682 Z" id="Fill-51" fill="#FFFFFF" mask="url(#mask-2)"></path>
                    <path d="M50.839338,14.8463221 C50.7291972,14.8131528 50.5723662,14.7930144 50.4227183,14.7930144 C50.1844789,14.7930144 49.9737746,14.8937067 49.8241268,15.0157221 L49.8241268,17.4145682 L48.9382113,17.4145682 L48.9382113,14.1118605 L49.5583521,14.1118605 L49.6541268,14.5572759 L49.6732817,14.5572759 C49.7762394,14.3215374 50.0755352,14.0514451 50.4706056,14.0514451 C50.6477887,14.0514451 50.7842676,14.0786913 50.8596901,14.0988297 L50.839338,14.8463221 Z" id="Fill-52" fill="#FFFFFF" mask="url(#mask-2)"></path>
                    <path d="M52.5953662,14.6912559 C52.1536056,14.6912559 51.9692394,15.0892867 51.9692394,15.4802097 L53.1879718,15.4802097 C53.1879718,15.0561174 53.0586761,14.6912559 52.5953662,14.6912559 L52.5953662,14.6912559 Z M51.9692394,15.9990713 C51.9692394,16.5250405 52.2697324,16.8140867 52.8264225,16.8140867 C53.1688169,16.8140867 53.516,16.6873328 53.8081127,16.5380713 L53.9781127,17.1576251 C53.699169,17.3057021 53.2430423,17.4810251 52.7186761,17.4810251 C51.6902958,17.4810251 51.0761408,16.8472559 51.0761408,15.7562251 C51.0761408,14.7386405 51.574169,14.0444559 52.6432535,14.0444559 C53.6512817,14.0444559 54.0463521,14.7860251 54.0463521,15.6140713 L54.0463521,15.9990713 L51.9692394,15.9990713 Z" id="Fill-53" fill="#FFFFFF" mask="url(#mask-2)"></path>
                    <path d="M55.9531056,17.4816174 C55.3605,17.4816174 54.9726127,17.2056021 54.9726127,16.3763713 L54.9726127,14.7392328 L54.4757817,14.7392328 L54.4757817,14.1113867 L54.9726127,14.1113867 L54.9726127,13.5392174 L55.8513451,13.2560944 L55.8513451,14.1113867 L56.7432465,14.1113867 L56.7432465,14.7392328 L55.8513451,14.7392328 L55.8513451,16.3562328 C55.8513451,16.5848636 55.9674718,16.7329405 56.2057113,16.7329405 C56.3888803,16.7329405 56.5792324,16.6796328 56.7169085,16.6132944 L56.8521901,17.2600944 C56.6546549,17.3738174 56.3074718,17.4816174 55.9531056,17.4816174" id="Fill-54" fill="#FFFFFF" mask="url(#mask-2)"></path>
                    <path d="M59.1273169,15.9719436 L58.5754155,15.9719436 C58.2066831,15.9719436 58.0378803,16.1472667 58.0378803,16.3960359 C58.0378803,16.6992974 58.2006972,16.8829128 58.5347113,16.8829128 C58.7466127,16.8829128 58.9633028,16.786959 59.1273169,16.6590205 L59.1273169,15.9719436 Z M59.3787254,17.4148051 L59.2554155,17.0238821 C59.0866127,17.2525128 58.7525986,17.4811436 58.2821056,17.4811436 C57.6140775,17.4811436 57.1651338,17.0570513 57.1651338,16.4232821 C57.1651338,15.8096513 57.6212606,15.447159 58.4257676,15.447159 L59.1273169,15.447159 L59.1273169,15.277759 C59.1273169,14.8536667 58.8818944,14.7186205 58.5418944,14.7186205 C58.1468239,14.7186205 57.8116127,14.8193128 57.5398521,14.9413282 L57.3147817,14.3146667 C57.649993,14.1725128 58.1049225,14.0445744 58.6292887,14.0445744 C59.5762606,14.0445744 59.9856972,14.4757744 59.9856972,15.3180359 L59.9856972,17.4148051 L59.3787254,17.4148051 Z" id="Fill-55" fill="#FFFFFF" mask="url(#mask-2)"></path>
                    <path d="M62.6545775,14.8463221 C62.5456338,14.8131528 62.3888028,14.7930144 62.2391549,14.7930144 C62.0009155,14.7930144 61.7890141,14.8937067 61.6393662,15.0157221 L61.6393662,17.4145682 L60.7546479,17.4145682 L60.7546479,14.1118605 L61.3747887,14.1118605 L61.4693662,14.5572759 L61.4897183,14.5572759 C61.5914789,14.3215374 61.8919718,14.0514451 62.2870423,14.0514451 C62.4642254,14.0514451 62.6007042,14.0786913 62.6761268,14.0988297 L62.6545775,14.8463221 Z" id="Fill-56" fill="#FFFFFF" mask="url(#mask-2)"></path>
                    <path d="M63.4647113,17.4145682 L63.4647113,14.7456297 L63.0768239,14.6650759 L63.0768239,14.1118605 L64.3506268,14.1118605 L64.3506268,17.4145682 L63.4647113,17.4145682 Z M62.9822465,13.5989221 L62.8924577,13.0942759 L64.6164014,12.6156913 L64.7325282,13.2624913 L62.9822465,13.5989221 Z" id="Fill-57" fill="#FFFFFF" mask="url(#mask-2)"></path>
                    <path d="M66.979162,15.9719436 L66.4272606,15.9719436 C66.0597254,15.9719436 65.8897254,16.1472667 65.8897254,16.3960359 C65.8897254,16.6992974 66.0537394,16.8829128 66.3865563,16.8829128 C66.5984577,16.8829128 66.8151479,16.786959 66.979162,16.6590205 L66.979162,15.9719436 Z M67.2305704,17.4148051 L67.1084577,17.0238821 C66.9384577,17.2525128 66.6056408,17.4811436 66.1351479,17.4811436 C65.4671197,17.4811436 65.0169789,17.0570513 65.0169789,16.4232821 C65.0169789,15.8096513 65.4743028,15.447159 66.2776127,15.447159 L66.979162,15.447159 L66.979162,15.277759 C66.979162,14.8536667 66.7337394,14.7186205 66.3937394,14.7186205 C65.998669,14.7186205 65.6646549,14.8193128 65.3928944,14.9413282 L65.1666268,14.3146667 C65.501838,14.1725128 65.9567676,14.0445744 66.482331,14.0445744 C67.4293028,14.0445744 67.8375423,14.4757744 67.8375423,15.3180359 L67.8375423,17.4148051 L67.2305704,17.4148051 Z" id="Fill-58" fill="#FFFFFF" mask="url(#mask-2)"></path>
                    <path d="M42.1084014,23.9460636 C41.4882606,24.2208944 41.0117817,24.3500174 40.4455141,24.3500174 C39.078331,24.3500174 38.3755845,23.4070636 38.3755845,21.9642021 C38.3755845,20.5829405 39.078331,19.6672328 40.5077676,19.6672328 C41.2021338,19.6672328 41.6582606,19.8342636 42.0198099,20.064079 L41.6450915,20.7381251 C41.3853028,20.5628021 40.9854437,20.4478944 40.5221338,20.4478944 C39.6900915,20.4478944 39.3153732,21.0484944 39.3153732,21.9499867 C39.3153732,23.0232482 39.7176268,23.5954174 40.5077676,23.5954174 C40.7998803,23.5954174 41.0668521,23.5551405 41.2847394,23.4532636 L41.2847394,22.6110021 L40.6574155,22.6110021 L40.6023451,21.9570944 L42.1084014,21.9570944 L42.1084014,23.9460636 Z" id="Fill-59" fill="#FFFFFF" mask="url(#mask-2)"></path>
                    <path d="M44.2256197,21.5595374 C43.7838592,21.5595374 43.599493,21.9575682 43.599493,22.3484913 L44.8182254,22.3484913 C44.8182254,21.924399 44.6889296,21.5595374 44.2256197,21.5595374 L44.2256197,21.5595374 Z M43.599493,22.8673528 C43.599493,23.3933221 43.8999859,23.6823682 44.4566761,23.6823682 C44.7990704,23.6823682 45.1462535,23.5556144 45.4383662,23.4075374 L45.6083662,24.0270913 C45.3294225,24.1751682 44.8732958,24.3493067 44.3489296,24.3493067 C43.3205493,24.3493067 42.7063944,23.7155374 42.7063944,22.6245067 C42.7063944,21.6069221 43.2044225,20.9127374 44.273507,20.9127374 C45.2815352,20.9127374 45.6766056,21.6543067 45.6766056,22.4835374 L45.6766056,22.8673528 L43.599493,22.8673528 Z" id="Fill-60" fill="#FFFFFF" mask="url(#mask-2)"></path>
                    <path d="M48.4216268,24.2827313 L48.4216268,22.3221928 C48.4216268,21.8234697 48.2300775,21.5877313 47.821838,21.5877313 C47.5907817,21.5877313 47.3932465,21.6884236 47.2364155,21.7903005 L47.2364155,24.2827313 L46.3445141,24.2827313 L46.3445141,20.9812082 L46.9562746,20.9812082 L47.0939507,21.3579159 C47.2843028,21.1352082 47.6506408,20.9125005 48.148669,20.9125005 C48.9938803,20.9125005 49.3266972,21.4041159 49.3266972,22.2404544 L49.3266972,24.2827313 L48.4216268,24.2827313 Z" id="Fill-61" fill="#FFFFFF" mask="url(#mask-2)"></path>
                    <path d="M51.444993,21.5595374 C51.0020352,21.5595374 50.8188662,21.9575682 50.8188662,22.3484913 L52.0375986,22.3484913 C52.0375986,21.924399 51.9083028,21.5595374 51.444993,21.5595374 L51.444993,21.5595374 Z M50.8188662,22.8673528 C50.8188662,23.3933221 51.118162,23.6823682 51.6760493,23.6823682 C52.0172465,23.6823682 52.3644296,23.5556144 52.6577394,23.4075374 L52.8265423,24.0270913 C52.5487958,24.1751682 52.0914718,24.3493067 51.5683028,24.3493067 C50.5387254,24.3493067 49.9257676,23.7155374 49.9257676,22.6245067 C49.9257676,21.6069221 50.4225986,20.9127374 51.4928803,20.9127374 C52.5009085,20.9127374 52.8959789,21.6543067 52.8959789,22.4835374 L52.8959789,22.8673528 L50.8188662,22.8673528 Z" id="Fill-62" fill="#FFFFFF" mask="url(#mask-2)"></path>
                    <path d="M55.4632183,21.7144851 C55.3542746,21.6813159 55.1974437,21.6611774 55.0465986,21.6611774 C54.8083592,21.6611774 54.5976549,21.7618697 54.448007,21.8838851 L54.448007,24.2827313 L53.5620915,24.2827313 L53.5620915,20.9812082 L54.1834296,20.9812082 L54.278007,21.425439 L54.2983592,21.425439 C54.4001197,21.1897005 54.6994155,20.9196082 55.0944859,20.9196082 C55.2728662,20.9196082 55.4081479,20.9468544 55.4835704,20.9669928 L55.4632183,21.7144851 Z" id="Fill-63" fill="#FFFFFF" mask="url(#mask-2)"></path>
                    <path d="M57.7371479,22.8401067 L57.1864437,22.8401067 C56.8177113,22.8401067 56.6477113,23.0154297 56.6477113,23.264199 C56.6477113,23.5674605 56.8117254,23.7510759 57.1457394,23.7510759 C57.3564437,23.7510759 57.574331,23.6551221 57.7371479,23.5271836 L57.7371479,22.8401067 Z M57.9897535,24.2829682 L57.8664437,23.8920451 C57.6964437,24.1206759 57.3636268,24.3493067 56.8931338,24.3493067 C56.2251056,24.3493067 55.776162,23.9252144 55.776162,23.2926297 C55.776162,22.6778144 56.2322887,22.3153221 57.0355986,22.3153221 L57.7371479,22.3153221 L57.7371479,22.1459221 C57.7371479,21.7218297 57.4929225,21.5867836 57.1517254,21.5867836 C56.7578521,21.5867836 56.4226408,21.6874759 56.1508803,21.8094913 L55.9258099,21.1828297 C56.2598239,21.0406759 56.7159507,20.9127374 57.2403169,20.9127374 C58.1872887,20.9127374 58.5967254,21.3439374 58.5967254,22.186199 L58.5967254,24.2829682 L57.9897535,24.2829682 Z" id="Fill-64" fill="#FFFFFF" mask="url(#mask-2)"></path>
                    <path d="M59.3786056,23.4069451 L59.3786056,19.6315759 L60.257338,19.6315759 L60.257338,23.3595605 C60.257338,23.6355759 60.427338,23.6770374 60.7960704,23.6770374 L60.7960704,24.2965913 C60.7960704,24.2965913 60.5374789,24.349899 60.3052254,24.349899 C59.6240282,24.349899 59.3786056,23.9921451 59.3786056,23.4069451" id="Fill-65" fill="#FFFFFF" mask="url(#mask-2)"></path>
                    <path d="M64.9495775,21.7353344 C64.8142958,21.6547805 64.6023944,21.5730421 64.3438028,21.5730421 C63.9211972,21.5730421 63.6554225,21.8573497 63.6554225,22.6249805 C63.6554225,23.4127497 63.9080282,23.7100882 64.3294366,23.7100882 C64.554507,23.7100882 64.7783803,23.6022882 64.9495775,23.4269651 L64.9495775,21.7353344 Z M65.0309859,21.2366113 C64.9759155,21.0482574 64.9495775,20.8788574 64.9495775,20.6289036 L64.9495775,19.6326421 L65.8342958,19.6326421 L65.8342958,24.2822574 L65.1135915,24.2822574 L65.011831,23.9185805 C64.8753521,24.1211497 64.554507,24.3497805 64.1259155,24.3497805 C63.370493,24.3497805 62.7635211,23.8107805 62.7635211,22.6320882 C62.7635211,21.5398728 63.3896479,20.9132113 64.2001408,20.9132113 C64.5616901,20.9132113 64.8478169,21.0340421 65.0309859,21.2366113 L65.0309859,21.2366113 Z" id="Fill-66" fill="#FFFFFF" mask="url(#mask-2)"></path>
                    <path d="M68.0277746,21.5595374 C67.5848169,21.5595374 67.4016479,21.9575682 67.4016479,22.3484913 L68.6203803,22.3484913 C68.6203803,21.924399 68.4910845,21.5595374 68.0277746,21.5595374 L68.0277746,21.5595374 Z M67.4016479,22.8673528 C67.4016479,23.3933221 67.7021408,23.6823682 68.258831,23.6823682 C68.6000282,23.6823682 68.9484085,23.5556144 69.2405211,23.4075374 L69.4105211,24.0270913 C69.1315775,24.1751682 68.6754507,24.3493067 68.1510845,24.3493067 C67.121507,24.3493067 66.5085493,23.7155374 66.5085493,22.6245067 C66.5085493,21.6069221 67.0053803,20.9127374 68.075662,20.9127374 C69.0836901,20.9127374 69.4787606,21.6543067 69.4787606,22.4835374 L69.4787606,22.8673528 L67.4016479,22.8673528 Z" id="Fill-67" fill="#FFFFFF" mask="url(#mask-2)"></path>
                    <path d="M71.657993,23.4069451 L71.657993,19.6315759 L72.5355282,19.6315759 L72.5355282,23.3595605 C72.5355282,23.6355759 72.7067254,23.6770374 73.0742606,23.6770374 L73.0742606,24.2965913 C73.0742606,24.2965913 72.815669,24.349899 72.5834155,24.349899 C71.9034155,24.349899 71.657993,23.9921451 71.657993,23.4069451" id="Fill-68" fill="#FFFFFF" mask="url(#mask-2)"></path>
                    <path d="M75.4576127,22.8401067 L74.9057113,22.8401067 C74.5381761,22.8401067 74.3681761,23.0154297 74.3681761,23.264199 C74.3681761,23.5674605 74.5321901,23.7510759 74.865007,23.7510759 C75.0769085,23.7510759 75.2935986,23.6551221 75.4576127,23.5271836 L75.4576127,22.8401067 Z M75.7102183,24.2829682 L75.5869085,23.8920451 C75.4169085,24.1206759 75.0840915,24.3493067 74.6135986,24.3493067 C73.9455704,24.3493067 73.4954296,23.9252144 73.4954296,23.2926297 C73.4954296,22.6778144 73.9527535,22.3153221 74.7560634,22.3153221 L75.4576127,22.3153221 L75.4576127,22.1459221 C75.4576127,21.7218297 75.2133873,21.5867836 74.8721901,21.5867836 C74.4771197,21.5867836 74.1431056,21.6874759 73.8713451,21.8094913 L73.6462746,21.1828297 C73.9802887,21.0406759 74.4352183,20.9127374 74.9607817,20.9127374 C75.9077535,20.9127374 76.315993,21.3439374 76.315993,22.186199 L76.315993,24.2829682 L75.7102183,24.2829682 Z" id="Fill-69" fill="#FFFFFF" mask="url(#mask-2)"></path>
                    <path d="M39.8740986,27.4802451 L39.3904366,27.4802451 L39.3904366,29.0024759 L39.8740986,29.0024759 C40.3984648,29.0024759 40.6977606,28.6861836 40.6977606,28.1874605 C40.6977606,27.7219067 40.3852958,27.4802451 39.8740986,27.4802451 M39.8956479,29.6966605 L39.3904366,29.6966605 L39.3904366,31.2804913 L38.4985352,31.2804913 L38.4985352,26.7315682 L39.8956479,26.7315682 C40.8342394,26.7315682 41.6447324,27.175799 41.6447324,28.1531067 C41.6447324,29.0297221 40.9779014,29.6966605 39.8956479,29.6966605" id="Fill-70" fill="#FFFFFF" mask="url(#mask-2)"></path>
                    <path d="M44.0689085,28.7134297 C43.9599648,28.6802605 43.8031338,28.6589374 43.6534859,28.6589374 C43.4152465,28.6589374 43.2045423,28.7596297 43.0536972,28.8816451 L43.0536972,31.2804913 L42.1689789,31.2804913 L42.1689789,27.9789682 L42.7891197,27.9789682 L42.8848944,28.423199 L42.9040493,28.423199 C43.007007,28.1874605 43.3063028,27.9173682 43.7013732,27.9173682 C43.8785563,27.9173682 44.0150352,27.945799 44.0904577,27.9647528 L44.0689085,28.7134297 Z" id="Fill-71" fill="#FFFFFF" mask="url(#mask-2)"></path>
                    <path d="M45.8261338,28.5584821 C45.3843732,28.5584821 45.200007,28.9553282 45.200007,29.3462513 L46.4187394,29.3462513 C46.4187394,28.922159 46.2894437,28.5584821 45.8261338,28.5584821 L45.8261338,28.5584821 Z M45.200007,29.8662974 C45.200007,30.3910821 45.5005,30.6813128 46.0571901,30.6813128 C46.3995845,30.6813128 46.7467676,30.5533744 47.0388803,30.4052974 L47.2088803,31.0248513 C46.9299366,31.1729282 46.4738099,31.3470667 45.9494437,31.3470667 C44.9198662,31.3470667 44.3069085,30.7144821 44.3069085,29.6222667 C44.3069085,28.6058667 44.8037394,27.9104974 45.8740211,27.9104974 C46.8820493,27.9104974 47.2771197,28.6520667 47.2771197,29.4812974 L47.2771197,29.8662974 L45.200007,29.8662974 Z" id="Fill-72" fill="#FFFFFF" mask="url(#mask-2)"></path>
                    <path d="M48.7209225,28.8476467 C48.7209225,29.3605851 50.1647254,29.2054005 50.1647254,30.2834005 C50.1647254,30.8828159 49.7145845,31.3471851 48.8502183,31.3471851 C48.4479648,31.3471851 48.0732465,31.2346467 47.8481761,31.1055236 L48.0337394,30.4930774 C48.1893732,30.5996928 48.5162042,30.7217082 48.8226831,30.7217082 C49.115993,30.7217082 49.3135282,30.5594159 49.3135282,30.3568467 C49.3135282,29.7633544 47.8900775,29.9588159 47.8900775,28.8346159 C47.8900775,28.3489236 48.2647958,27.9106159 49.1626831,27.9106159 C49.5110634,27.9106159 49.8714155,27.9793236 50.103669,28.0729082 L49.9803592,28.7137851 C49.7552887,28.6119082 49.4703592,28.5443851 49.1770493,28.5443851 C48.8705704,28.5443851 48.7209225,28.6592928 48.7209225,28.8476467" id="Fill-73" fill="#FFFFFF" mask="url(#mask-2)"></path>
                    <path d="M51.111338,27.4326236 L52.0092254,27.4326236 L52.0092254,26.630639 L51.111338,26.630639 L51.111338,27.4326236 Z M51.1388732,31.2802544 L51.1388732,28.6113159 L50.7509859,28.5307621 L50.7509859,27.9787313 L52.0235915,27.9787313 L52.0235915,31.2802544 L51.1388732,31.2802544 Z" id="Fill-74" fill="#FFFFFF" mask="url(#mask-2)"></path>
                    <path d="M54.9114366,28.7330944 C54.7749577,28.6525405 54.5642535,28.5708021 54.3044648,28.5708021 C53.8830563,28.5708021 53.6172817,28.8551097 53.6172817,29.6227405 C53.6172817,30.4116944 53.8698873,30.7078482 54.2912958,30.7078482 C54.5163662,30.7078482 54.7402394,30.6000482 54.9114366,30.4247251 L54.9114366,28.7330944 Z M54.9928451,28.2343713 C54.9377746,28.0460174 54.9114366,27.8766174 54.9114366,27.6278482 L54.9114366,26.6315867 L55.7961549,26.6315867 L55.7961549,31.2800174 L55.0754507,31.2800174 L54.972493,30.9175251 C54.8372113,31.1189097 54.5163662,31.3475405 54.0877746,31.3475405 C53.3311549,31.3475405 52.7253803,30.8085405 52.7253803,29.6298482 C52.7253803,28.5376328 53.351507,27.9109713 54.162,27.9109713 C54.5235493,27.9109713 54.8084789,28.0318021 54.9928451,28.2343713 L54.9928451,28.2343713 Z" id="Fill-75" fill="#FFFFFF" mask="url(#mask-2)"></path>
                    <path d="M57.9897535,28.5584821 C57.5467958,28.5584821 57.3636268,28.9553282 57.3636268,29.3462513 L58.5823592,29.3462513 C58.5823592,28.922159 58.4530634,28.5584821 57.9897535,28.5584821 L57.9897535,28.5584821 Z M57.3636268,29.8662974 C57.3636268,30.3910821 57.6629225,30.6813128 58.2208099,30.6813128 C58.562007,30.6813128 58.9091901,30.5533744 59.2025,30.4052974 L59.3725,31.0248513 C59.0935563,31.1729282 58.6362324,31.3470667 58.1130634,31.3470667 C57.0834859,31.3470667 56.4705282,30.7144821 56.4705282,29.6222667 C56.4705282,28.6058667 56.9673592,27.9104974 58.0376408,27.9104974 C59.045669,27.9104974 59.4407394,28.6520667 59.4407394,29.4812974 L59.4407394,29.8662974 L57.3636268,29.8662974 Z" id="Fill-76" fill="#FFFFFF" mask="url(#mask-2)"></path>
                    <path d="M62.1845634,31.2804913 L62.1845634,29.3199528 C62.1845634,28.8212297 61.9942113,28.5854913 61.5859718,28.5854913 C61.3549155,28.5854913 61.1573803,28.6861836 61.0005493,28.7880605 L61.0005493,31.2804913 L60.1086479,31.2804913 L60.1086479,27.9789682 L60.7204085,27.9789682 L60.8568873,28.3556759 C61.0472394,28.1341528 61.4147746,27.9102605 61.9116056,27.9102605 C62.7580141,27.9102605 63.090831,28.4030605 63.090831,29.2382144 L63.090831,31.2804913 L62.1845634,31.2804913 Z" id="Fill-77" fill="#FFFFFF" mask="url(#mask-2)"></path>
                    <path d="M66.4752676,31.0583759 C66.2849155,31.1590682 65.8347746,31.3474221 65.3307606,31.3474221 C64.3370986,31.3474221 63.7373099,30.7882836 63.7373099,29.6297297 C63.7373099,28.5517297 64.3370986,27.9108528 65.3247746,27.9108528 C65.7665352,27.9108528 66.1484366,27.9985144 66.4680845,28.1809451 L66.2370282,28.7803605 C65.9987887,28.6393913 65.6923099,28.5777913 65.4001972,28.5777913 C64.9368873,28.5777913 64.6435775,28.8881605 64.6435775,29.6297297 C64.6435775,30.3784067 64.9225211,30.6816682 65.4061831,30.6816682 C65.7533662,30.6816682 66.0945634,30.5525451 66.3112535,30.4317144 L66.4752676,31.0583759 Z" id="Fill-78" fill="#FFFFFF" mask="url(#mask-2)"></path>
                    <path d="M67.3128169,27.4326236 L68.2130986,27.4326236 L68.2130986,26.630639 L67.3128169,26.630639 L67.3128169,27.4326236 Z M67.3403521,31.2802544 L67.3403521,28.6113159 L66.9524648,28.5307621 L66.9524648,27.9787313 L68.2250704,27.9787313 L68.2250704,31.2802544 L67.3403521,31.2802544 Z" id="Fill-79" fill="#FFFFFF" mask="url(#mask-2)"></path>
                    <path d="M70.8407958,29.8390513 L70.2888944,29.8390513 C69.9213592,29.8390513 69.7513592,30.0131897 69.7513592,30.2631436 C69.7513592,30.5664051 69.9153732,30.7488359 70.2481901,30.7488359 C70.4600915,30.7488359 70.6767817,30.6528821 70.8407958,30.5261282 L70.8407958,29.8390513 Z M71.0922042,31.2807282 L70.9700915,30.8898051 C70.8000915,31.1184359 70.4672746,31.3470667 69.9967817,31.3470667 C69.3287535,31.3470667 68.8786127,30.924159 68.8786127,30.2903897 C68.8786127,29.676759 69.3347394,29.3130821 70.1392465,29.3130821 L70.8407958,29.3130821 L70.8407958,29.1448667 C70.8407958,28.7207744 70.5953732,28.5845436 70.2553732,28.5845436 C69.8603028,28.5845436 69.5262887,28.6852359 69.2545282,28.8072513 L69.0282606,28.1817744 C69.3634718,28.0384359 69.8184014,27.9104974 70.3439648,27.9104974 C71.2909366,27.9104974 71.6991761,28.3416974 71.6991761,29.1851436 L71.6991761,31.2807282 L71.0922042,31.2807282 Z" id="Fill-80" fill="#FFFFFF" mask="url(#mask-2)"></path>
                </g>
            </g>
        </g>
    </g>
</svg>