<?xml version="1.0" encoding="UTF-8"?>
<svg width="79px" height="18px" viewBox="0 0 79 18" version="1.1" xmlns="http://www.w3.org/2000/svg" xmlns:xlink="http://www.w3.org/1999/xlink">
    <!-- Generator: sketchtool 57.1 (101010) - https://sketch.com -->
    <title>A4C3D45F-7997-42B5-8438-187FAAF6F3AA</title>
    <desc>Created with sketchtool.</desc>
    <defs>
        <polygon id="path-1" points="0.0833952038 0.108530334 9.42737122 0.108530334 9.42737122 13.4761346 0.0833952038 13.4761346"></polygon>
        <polygon id="path-3" points="0 0.0717651617 12.1590851 0.0717651617 12.1590851 5.10880261 0 5.10880261"></polygon>
        <polygon id="path-5" points="0 0.0982998605 16.955806 0.0982998605 16.955806 5.13400868 0 5.13400868"></polygon>
    </defs>
    <g id="backend" stroke="none" stroke-width="1" fill="none" fill-rule="evenodd">
        <g id="Desktop-Copy" transform="translate(-1221.000000, -166.000000)">
            <g id="Group-35" transform="translate(1221.000000, 166.000000)">
                <g id="Group-34">
                    <g id="Group-3" transform="translate(54.750600, 4.007081)">
                        <mask id="mask-2" fill="white">
                            <use xlink:href="#path-1"></use>
                        </mask>
                        <g id="Clip-2"></g>
                        <path d="M4.78607386,7.84990533 C3.14033525,7.84990533 1.72496595,6.51424957 1.72496595,4.73350176 C1.72496595,3.08466822 3.14033525,1.63342139 4.78607386,1.63342139 C6.43200192,1.63342139 7.84718177,3.08466822 7.84718177,4.73350176 C7.84718177,6.51424957 6.43200192,7.84990533 4.78607386,7.84990533 M4.78607386,0.248416407 C3.47016499,0.248416407 2.36568058,0.697114747 1.56450312,1.42805269 L1.56450312,0.874582153 C1.56469257,0.86680016 1.5667765,0.859587581 1.5667765,0.851615783 C1.5667765,0.843643985 1.56469257,0.836431406 1.56450312,0.828459608 L1.56450312,0.825422732 L1.56412422,0.825422732 C1.55010504,0.427592056 1.2257693,0.108530334 0.825085851,0.108530334 C0.424402398,0.108530334 0.100066667,0.427592056 0.0858580336,0.825422732 L0.0833952038,0.825422732 L0.0833952038,12.8188029 L0.0919203837,12.8188029 C0.13492518,13.1883527 0.444673381,13.4762864 0.825085851,13.4762864 C1.20549832,13.4762864 1.51505707,13.1883527 1.55825132,12.8188029 L1.56450312,12.8188029 L1.56450312,12.7561673 C1.56469257,12.7481955 1.5667765,12.740983 1.5667765,12.7330112 C1.5667765,12.7252292 1.56469257,12.717637 1.56450312,12.709855 L1.56450312,7.99890203 C2.37932086,8.75944951 3.49574053,9.23491031 4.78607386,9.23491031 C7.48533525,9.23491031 9.42737122,7.15749774 9.42737122,4.73350176 C9.42737122,2.27666956 7.58403789,0.248416407 4.78607386,0.248416407" id="Fill-1" fill="#FEFEFE" mask="url(#mask-2)"></path>
                    </g>
                    <path d="M68.3382585,11.8210375 C68.3376902,11.8210375 68.3371218,11.8212273 68.336364,11.8212273 L67.8938125,11.8212273 C67.4165918,11.8212273 66.9393712,11.4915365 66.9393712,10.5187873 L66.9393712,0.766241623 C66.9395607,0.75845963 66.9416446,0.751057246 66.9416446,0.743275253 C66.9416446,0.735303455 66.9395607,0.728090876 66.9393712,0.720308883 L66.9393712,0.697722122 L66.9370978,0.697722122 C66.9134168,0.309002071 66.5940067,-1.42108547e-14 66.199954,-1.42108547e-14 C65.8057118,-1.42108547e-14 65.4864911,0.309002071 65.4626206,0.697722122 L65.4582633,0.697722122 L65.4582633,10.6339988 C65.4582633,12.4314494 66.3632585,13.2064221 67.7293712,13.2064221 L68.3382585,13.2064221 L68.3382585,13.1988299 C68.7181026,13.1988299 69.0259564,12.8903972 69.0259564,12.5098388 C69.0259564,12.1294701 68.7181026,11.8210375 68.3382585,11.8210375" id="Fill-4" fill="#FEFEFE"></path>
                    <path d="M34.9818252,4.87686126 C34.9818252,4.47219761 34.6542688,4.14421507 34.2505542,4.14421507 C33.8466501,4.14421507 33.5190938,4.47219761 33.5190938,4.87686126 C33.5190938,4.88084715 33.5202305,4.88426364 33.5204199,4.88824954 L33.5204199,12.3804109 C33.5202305,12.3843968 33.5190938,12.3880031 33.5190938,12.391989 C33.5190938,12.3957851 33.5202305,12.3993914 33.5204199,12.4031875 L33.5204199,12.4096409 L33.5209882,12.4096409 C33.5306501,12.8057633 33.8527125,13.1244454 34.2505542,13.1244454 C34.6482065,13.1244454 34.9702688,12.8057633 34.9799307,12.4096409 L34.9806885,12.4096409 L34.9806885,12.4031875 C34.9806885,12.3993914 34.9818252,12.3957851 34.9818252,12.391989 C34.9818252,12.3880031 34.9806885,12.3843968 34.9806885,12.3804109 L34.9806885,4.88824954 C34.9806885,4.88426364 34.9818252,4.88084715 34.9818252,4.87686126" id="Fill-6" fill="#FEFEFE"></path>
                    <path d="M52.9774,8.19064275 C52.9774,8.18798548 52.9775894,8.18570782 52.9775894,8.18324036 C52.9775894,8.17071325 52.9758844,8.15856575 52.975695,8.14622844 L52.975695,8.03120679 L52.9703904,8.03120679 C52.8957477,5.888881 51.2600499,4.14552472 48.7993041,4.14552472 C47.2702657,4.14552472 46.0610163,4.82084989 45.3443329,5.8446565 C44.6278388,4.82084989 43.4185894,4.14552472 41.8893616,4.14552472 C39.4288053,4.14552472 37.7931074,5.888881 37.7182753,8.03120679 L37.7112657,8.03120679 L37.7112657,12.4060156 C37.7112657,12.802138 38.031623,13.1230978 38.4268125,13.1230978 C38.8221914,13.1230978 39.1427381,12.802138 39.1427381,12.4060156 L39.1427381,8.17887485 C39.1427381,6.694602 40.4076854,5.39254168 41.8893616,5.39254168 C43.3202657,5.39254168 44.5439132,6.61089813 44.6263233,8.03120679 L44.6213976,8.03120679 L44.6213976,12.4060156 C44.6213976,12.802138 44.9417549,13.1230978 45.3369444,13.1230978 C45.3392177,13.1230978 45.3413017,13.1223386 45.3435751,13.1223386 C45.3458484,13.1223386 45.3479324,13.1230978 45.3500163,13.1230978 C45.7452058,13.1230978 46.0657525,12.802138 46.0657525,12.4060156 L46.0657525,8.36526308 C46.065942,8.35956894 46.0674576,8.3540646 46.0674576,8.34818066 C46.0674576,8.34343554 46.065942,8.33888023 46.0657525,8.33413511 L46.0657525,8.19064275 L46.0672681,8.19064275 C46.0672681,8.18798548 46.0674576,8.18570782 46.0674576,8.18324036 C46.0674576,8.17071325 46.065942,8.15856575 46.0657525,8.14622844 L46.0657525,8.03120679 L46.060448,8.03120679 C46.141153,6.60956949 47.3674528,5.39254168 48.7993041,5.39254168 C50.2811698,5.39254168 51.544412,6.69820829 51.544412,8.18248114 L51.544412,12.4060156 C51.544412,12.802138 51.8647693,13.1230978 52.2601482,13.1230978 C52.6553376,13.1230978 52.975695,12.802138 52.975695,12.4060156 L52.975695,8.36526308 C52.9758844,8.35956894 52.9775894,8.3540646 52.9775894,8.34818066 C52.9775894,8.34343554 52.9758844,8.33888023 52.975695,8.33413511 L52.975695,8.19064275 L52.9774,8.19064275 Z" id="Fill-8" fill="#FEFEFE"></path>
                    <path d="M71.6436223,7.92409999 C71.9190803,6.50208308 73.1084376,5.6528968 74.4571211,5.6528968 C75.8101619,5.6528968 77.066205,6.52315141 77.2802818,7.92409999 L71.6436223,7.92409999 Z M78.9843705,8.38570505 C78.9843705,6.80330316 77.7730372,4.29294604 74.5224808,4.29294604 C71.9044928,4.29294604 69.9298717,6.20902461 69.9298717,8.74975049 C69.9298717,11.3878462 71.9351835,13.2063651 74.8070324,13.2063651 C76.0806942,13.2063651 77.1724856,12.8575041 78.0522842,12.1700314 C78.1405671,12.0961974 78.3680947,11.8822875 78.3680947,11.6503461 C78.3680947,11.2479601 77.9643801,10.8377921 77.5678645,10.8377921 C77.3526511,10.8377921 77.2494017,10.8814472 77.1126199,10.9731229 C76.4641379,11.414229 75.752759,11.8464144 74.8439748,11.8464144 C73.3344496,11.8464144 72.0649556,11.075048 71.7466823,9.73009183 L71.6388861,9.27323188 L78.0543681,9.27323188 C78.6103993,9.27323188 78.9843705,8.91658883 78.9843705,8.38570505 L78.9843705,8.38570505 Z" id="Fill-10" fill="#FEFEFE"></path>
                    <path d="M0.603033333,0.97195197 C0.603033333,0.596328445 0.906908633,0.292071491 1.28163765,0.292071491 C1.65655612,0.292071491 1.96043141,0.596328445 1.96043141,0.97195197 C1.96043141,1.3475755 1.65655612,1.65183245 1.28163765,1.65183245 C0.906908633,1.65183245 0.603033333,1.3475755 0.603033333,0.97195197" id="Fill-12" fill="#E4283C"></path>
                    <path d="M12.7473604,8.21233742 C12.7473604,7.8367139 13.0512357,7.53245695 13.4259647,7.53245695 C13.8008832,7.53245695 14.1045691,7.8367139 14.1045691,8.21233742 C14.1045691,8.58796095 13.8008832,8.8922179 13.4259647,8.8922179 C13.0512357,8.8922179 12.7473604,8.58796095 12.7473604,8.21233742" id="Fill-14" fill="#E4283C"></path>
                    <path d="M5.01104388,4.5943749 C5.01104388,4.21875138 5.31491918,3.91449442 5.6896482,3.91449442 C6.06456667,3.91449442 6.36825252,4.21875138 6.36825252,4.5943749 C6.36825252,4.96999843 6.06456667,5.27425538 5.6896482,5.27425538 C5.31491918,5.27425538 5.01104388,4.96999843 5.01104388,4.5943749" id="Fill-16" fill="#E4283C"></path>
                    <path d="M4.83898681,11.8347604 C4.83898681,11.4151021 5.17866787,11.0749721 5.59753837,11.0749721 C6.01659832,11.0749721 6.35608993,11.4151021 6.35608993,11.8347604 C6.35608993,12.2546084 6.01659832,12.5947384 5.59753837,12.5947384 C5.17866787,12.5947384 4.83898681,12.2546084 4.83898681,11.8347604" id="Fill-18" fill="#E4283C"></path>
                    <path d="M17.4989168,15.4573541 C17.4989168,15.0376959 17.8384084,14.697376 18.2572789,14.697376 C18.6763388,14.697376 19.0158305,15.0376959 19.0158305,15.4573541 C19.0158305,15.8770123 18.6763388,16.2173322 18.2572789,16.2173322 C17.8384084,16.2173322 17.4989168,15.8770123 17.4989168,15.4573541" id="Fill-20" fill="#E4283C"></path>
                    <path d="M17.0166,0.267966293 C17.0076959,0.267586683 16.9993602,0.265309027 16.9904561,0.265309027 L3.26927386,0.265309027 C2.87976787,0.265309027 2.56395731,0.581523677 2.56395731,0.97195197 C2.56395731,1.36219046 2.87976787,1.67859491 3.26927386,1.67859491 L16.9904561,1.67859491 C16.9915928,1.67859491 16.9927295,1.6782153 16.9938662,1.6782153 C17.001823,1.6780255 17.0092115,1.67954394 17.0173578,1.67935413 C17.6129837,1.65183245 18.1387031,2.13260779 18.1620053,2.7415013 C18.185118,3.35058462 17.7094129,3.86495539 17.1016624,3.88830137 C17.099389,3.88830137 17.0976839,3.88906059 17.0956,3.88906059 L7.69175827,3.88906059 C7.30244173,3.88906059 6.98663118,4.20546505 6.98663118,4.59570354 C6.98663118,4.98594202 7.30244173,5.30234648 7.69175827,5.30234648 L17.128564,5.30234648 C17.1342475,5.30234648 17.1397415,5.30082804 17.1454249,5.30063824 C17.148835,5.30063824 17.1520556,5.30063824 17.1552763,5.30044843 C18.5405233,5.24749292 19.6243578,4.07563862 19.5718806,2.68759676 C19.5195928,1.31796596 18.3685041,0.24689797 17.0166,0.267966293" id="Fill-22" fill="#FEFEFE"></path>
                    <path d="M16.9636871,7.5074217 C16.9500468,7.50799112 16.9373537,7.51159741 16.9240923,7.51292604 L15.4202506,7.51292604 C15.0307446,7.51292604 14.7149341,7.8293305 14.7149341,8.21956898 C14.7149341,8.60980747 15.0307446,8.92621193 15.4202506,8.92621193 L16.9905887,8.92621193 C17.008018,8.92621193 17.0245,8.92222603 17.0417398,8.9208974 C17.6273249,8.90647224 18.1390252,9.38136363 18.1619484,9.98171593 C18.1850612,10.5909891 17.7095456,11.1055496 17.101795,11.1287058 C17.0750827,11.1298446 17.0500755,11.1357286 17.0241211,11.1397145 C16.9875576,11.1336407 16.9504257,11.1281364 16.9119676,11.1281364 L7.69189089,11.1281364 C7.30238489,11.1281364 6.98657434,11.4445408 6.98657434,11.8347793 C6.98657434,12.2250178 7.30238489,12.5414223 7.69189089,12.5414223 L16.9119676,12.5414223 C16.9485312,12.5414223 16.9835791,12.5359179 17.0188165,12.5306034 C17.0546223,12.5362976 17.090807,12.5414223 17.1281283,12.5414223 C17.1372218,12.5414223 17.1461259,12.5412325 17.1554089,12.5410427 C18.5404664,12.4878974 19.624301,11.3158533 19.5720132,9.9280012 C19.5187782,8.53995934 18.3383249,7.46205838 16.9636871,7.5074217" id="Fill-24" fill="#FEFEFE"></path>
                    <g id="Group-28" transform="translate(0.000000, 3.817276)">
                        <mask id="mask-4" fill="white">
                            <use xlink:href="#path-3"></use>
                        </mask>
                        <g id="Clip-27"></g>
                        <path d="M11.4537686,3.69570653 L2.75675899,3.69570653 C2.73250959,3.69570653 2.70939688,3.70045165 2.68571583,3.70291911 C2.64327938,3.69627595 2.59989568,3.69229005 2.55556475,3.69342888 C2.26608753,3.70519677 1.98020983,3.60042457 1.76404916,3.39980099 C1.54769904,3.19936721 1.42247362,2.92604842 1.41129616,2.63147151 C1.38818345,2.02238819 1.86388849,1.50782761 2.47163909,1.48467144 C2.48035372,1.48429183 2.48831055,1.48163456 2.49683573,1.48106515 C2.51028657,1.48182437 2.52297962,1.48524085 2.53680935,1.48524085 L3.69528657,1.48524085 C4.08479257,1.48524085 4.40060312,1.1688364 4.40060312,0.778408105 C4.40060312,0.388169617 4.08479257,0.0717651617 3.69528657,0.0717651617 L2.53680935,0.0717651617 C2.5193801,0.0717651617 2.50308753,0.0757510606 2.48603717,0.0770796936 C2.46330336,0.0755612559 2.44132734,0.0717651617 2.41802518,0.0723345758 C1.03277818,0.125290091 -0.0508669065,1.29714438 0.00179976019,2.68518624 C0.0273752998,3.35747453 0.312684652,3.97927477 0.8052506,4.43651432 C1.27356715,4.87135692 1.87582374,5.10747398 2.51085492,5.10747398 C2.5436295,5.10747398 2.57678297,5.10690457 2.60936811,5.10576574 C2.62585012,5.10500652 2.64119544,5.10064101 2.65748801,5.09893277 C2.69026259,5.10348808 2.72265827,5.10880261 2.75675899,5.10880261 L11.4537686,5.10880261 C11.8432746,5.10880261 12.1590851,4.79239816 12.1590851,4.40234948 C12.1590851,4.01211099 11.8432746,3.69570653 11.4537686,3.69570653" id="Fill-26" fill="#FEFEFE" mask="url(#mask-4)"></path>
                    </g>
                    <g id="Group-31" transform="translate(0.000000, 11.029856)">
                        <mask id="mask-6" fill="white">
                            <use xlink:href="#path-5"></use>
                        </mask>
                        <g id="Clip-30"></g>
                        <path d="M16.2504894,3.7209126 L2.85875803,3.7209126 C2.81025923,3.7209126 2.76289712,3.72584752 2.7170506,3.73514795 C2.66476283,3.72470869 2.61095947,3.71806553 2.55564053,3.71996357 C2.26616331,3.73154166 1.98028561,3.62695927 1.76393549,3.42633568 C1.54777482,3.22590191 1.42235995,2.95258312 1.41137194,2.6578164 C1.38825923,2.04873308 1.86396427,1.53417251 2.47171487,1.51101633 C2.48687074,1.51044692 2.50107938,1.50646102 2.5160458,1.50475278 C2.53821127,1.50703043 2.55980839,1.51158575 2.58254221,1.51158575 L3.69536235,1.51158575 C4.0846789,1.51158575 4.40048945,1.19518129 4.40048945,0.804942804 C4.40048945,0.414704316 4.0846789,0.0982998605 3.69536235,0.0982998605 L2.58254221,0.0982998605 C2.55961894,0.0982998605 2.53821127,0.102855174 2.51585635,0.10513283 C2.48365012,0.102095955 2.45163333,0.0977304463 2.41791151,0.0988692746 C1.03285396,0.151824789 -0.0507911271,1.32367908 0.00168609113,2.71172094 C0.0272616307,3.38400923 0.312760432,4.00580947 0.805326379,4.46304902 C1.27345348,4.89789162 1.87589952,5.13400868 2.5109307,5.13400868 C2.54351583,5.13400868 2.5766693,5.13324946 2.60944388,5.13230044 C2.64449185,5.130782 2.67745588,5.12432864 2.71098825,5.11787528 C2.75872926,5.12812473 2.80798585,5.13400868 2.85875803,5.13400868 L16.2504894,5.13400868 C16.6399954,5.13400868 16.955806,4.81760422 16.955806,4.42755554 C16.955806,4.03731705 16.6399954,3.7209126 16.2504894,3.7209126" id="Fill-29" fill="#FEFEFE" mask="url(#mask-6)"></path>
                    </g>
                    <path d="M24.7695501,12.229744 C24.5657036,12.1048525 24.4200177,11.9735076 24.3355237,11.8374176 C24.2495141,11.7005684 24.2080249,11.5470164 24.2080249,11.3761922 C24.2080249,11.1943593 24.2578499,11.0406174 24.3605309,10.9149667 C24.4630225,10.7900752 24.5933631,10.7276295 24.7528787,10.7276295 C24.8997012,10.7276295 25.1327228,10.8183561 25.451754,11.0003788 C25.7912456,11.1831608 26.123917,11.3312085 26.4469266,11.4441423 C26.7714518,11.5582149 27.1776293,11.6151563 27.6656484,11.6151563 C28.2105022,11.6151563 28.6361928,11.5185457 28.9438571,11.3247551 C29.2503847,11.1317237 29.4028906,10.8587845 29.4028906,10.5059376 C29.4028906,10.2781719 29.3434038,10.096339 29.2240513,9.9594898 C29.1048882,9.82321002 28.8982,9.70116559 28.6028499,9.59259729 C28.3076892,9.48440861 27.869495,9.36843793 27.2914878,9.24278721 C26.2917683,9.02659964 25.5720537,8.73354116 25.1355645,8.36342198 C24.6986964,7.99406201 24.479694,7.4903203 24.479694,6.85295608 C24.479694,6.36401914 24.621212,5.92291299 24.9053847,5.53058665 C25.1895573,5.13826031 25.581905,4.83324413 26.0811017,4.61724637 C26.581435,4.40124861 27.1486436,4.29305992 27.785001,4.29305992 C28.2396772,4.29305992 28.6818499,4.3526586 29.113224,4.47204577 C29.5457348,4.59162273 29.9255789,4.76510424 30.2555981,4.9928699 C30.6299482,5.2428427 30.8171233,5.53343372 30.8171233,5.8631245 C30.8171233,6.04514722 30.762941,6.19869923 30.6560921,6.32434995 C30.5481065,6.44943126 30.4190921,6.51187701 30.2720801,6.51187701 C30.1695885,6.51187701 30.068423,6.48891064 29.965742,6.44392692 C29.8632504,6.39780438 29.7272264,6.32434995 29.5569122,6.2216656 C29.2503847,6.03964288 28.9633703,5.89728935 28.6958691,5.79517441 C28.4295046,5.69249007 28.0968331,5.6416224 27.7003175,5.6416224 C27.2219602,5.6416224 26.8394638,5.74373734 26.5496077,5.94853662 C26.2597516,6.15352571 26.1155813,6.43196922 26.1155813,6.78481618 C26.1155813,7.1034983 26.2487635,7.35081384 26.5164542,7.52733222 C26.7826293,7.7036608 27.2842887,7.87163797 28.0235165,8.03069431 C28.7845309,8.19050988 29.3807252,8.3725326 29.8119098,8.57733189 C30.2444206,8.78156176 30.5536005,9.03495105 30.7407755,9.33655073 C30.9279506,9.63853003 31.0222959,10.0219356 31.0222959,10.4886653 C31.0222959,11.2283343 30.7116005,11.8226129 30.0934302,12.2722602 C29.4735549,12.7222872 28.6473703,12.9464466 27.6144974,12.9464466 C26.4567779,12.9464466 25.5070729,12.7076722 24.7695501,12.229744" id="Fill-32" fill="#FEFEFE"></path>
                </g>
            </g>
        </g>
    </g>
</svg>