<?xml version="1.0" encoding="UTF-8"?>
<svg width="30px" height="30px" viewBox="0 0 30 30" version="1.1" xmlns="http://www.w3.org/2000/svg" xmlns:xlink="http://www.w3.org/1999/xlink">
    <!-- Generator: Sketch 48.2 (47327) - http://www.bohemiancoding.com/sketch -->
    <title>by</title>
    <desc>Created with Sketch.</desc>
    <defs></defs>
    <g id="Footer/2" stroke="none" stroke-width="1" fill="none" fill-rule="evenodd" transform="translate(-1235.000000, -66.000000)">
        <g id="by" transform="translate(1235.000000, 66.000000)" fill="#7D8391" fill-rule="nonzero">
            <path d="M14.9736923,0.230769231 C19.122,0.230769231 22.6213846,1.65461538 25.47,4.50323077 C28.3352308,7.36938462 29.7692308,10.8683077 29.7692308,15 C29.7692308,19.1496923 28.362,22.6043077 25.5484615,25.3643077 C22.5595385,28.3010769 19.0347692,29.7692308 14.9736923,29.7692308 C10.9818462,29.7692308 7.51846154,28.3181538 4.58261538,25.4169231 C1.68184615,22.5156923 0.230769231,19.044 0.230769231,15 C0.230769231,10.9564615 1.68184615,7.45753846 4.58261538,4.50369231 C7.43123077,1.65461538 10.8941538,0.230769231 14.9736923,0.230769231 Z M15.0263077,2.89476923 C11.6681538,2.89476923 8.82876923,4.07307692 6.50769231,6.42876923 C4.09846154,8.89061538 2.89430769,11.748 2.89430769,15.0004615 C2.89430769,18.2709231 4.08969231,21.102 6.48046154,23.4918462 C8.87169231,25.8835385 11.7198462,27.0784615 15.0253846,27.0784615 C18.3129231,27.0784615 21.1795385,25.8752308 23.6233846,23.4655385 C25.9444615,21.2326154 27.1047692,18.4107692 27.1047692,14.9995385 C27.1047692,11.6413846 25.9264615,8.78492308 23.5712308,6.42830769 C21.2155385,4.07261538 18.3669231,2.89476923 15.0263077,2.89476923 Z M18.9826154,11.334 L18.9826154,17.3732308 L17.2952308,17.3732308 L17.2952308,24.5464615 L12.7056923,24.5464615 L12.7056923,17.3736923 L11.0183077,17.3736923 L11.0183077,11.334 C11.0183077,11.07 11.1106154,10.8461538 11.2947692,10.6615385 C11.4798462,10.4773846 11.7041538,10.3846154 11.9672308,10.3846154 L18.0336923,10.3846154 C18.2796923,10.3846154 18.4998462,10.4769231 18.6927692,10.6615385 C18.8852308,10.8461538 18.9826154,11.0704615 18.9826154,11.334 Z M12.9424615,7.53646154 C12.9424615,6.14815385 13.6278462,5.45307692 15,5.45307692 C16.3721538,5.45307692 17.0570769,6.14723077 17.0570769,7.53646154 C17.0570769,8.90769231 16.3712308,9.59353846 15,9.59353846 C13.6287692,9.59353846 12.9424615,8.90769231 12.9424615,7.53646154 Z" id="Shape"></path>
        </g>
    </g>
</svg>