<?xml version="1.0" encoding="UTF-8"?>
<svg width="28px" height="28px" viewBox="0 0 28 28" version="1.1" xmlns="http://www.w3.org/2000/svg" xmlns:xlink="http://www.w3.org/1999/xlink">
    <!-- Generator: sketchtool 57.1 (101010) - https://sketch.com -->
    <title>BCCB759D-03CE-4718-9535-59CA8EA4F027</title>
    <desc>Created with sketchtool.</desc>
    <g id="backend" stroke="none" stroke-width="1" fill="none" fill-rule="evenodd">
        <g id="Desktop-Copy" transform="translate(-156.000000, -160.000000)" fill="#FFFFFF">
            <g id="cl-u-footer__cc-content-footer-/-cl-u-footer__cc-content" transform="translate(139.000000, 143.000000)">
                <g id="cl-icon--32px-icon-/-cl-icon--32px" transform="translate(15.000000, 15.000000)">
                    <g id="icon-icon-/-icons-/-contact-/-cl-i-cc">
                        <path d="M15.9744058,2 C19.8905296,2 23.2247691,3.36720886 25.9744996,6.10031407 C27.2905202,7.41677214 28.2910983,8.92135815 28.974484,10.6127596 C29.6574322,12.3045985 30,14.1001266 30,16.0002188 C30,17.9169362 29.6618072,19.7129018 28.9876092,21.3872405 C28.3125362,23.0620166 27.3163331,24.5416648 26.0003125,25.8248723 C24.6339787,27.1745808 23.0838919,28.2084095 21.3500524,28.9250457 C19.6170878,29.6416819 17.8250598,30 15.9752809,30 C14.125502,30 12.3544743,29.6464945 10.6626354,28.9372959 C8.97123394,28.2294099 7.45439773,27.2043314 6.11256426,25.8629353 C4.7707308,24.5215394 3.75002735,23.0086408 3.05001641,21.3251145 C2.35000547,19.6415882 2,17.8670604 2,16.0002188 C2,14.1500023 2.35394303,12.3710996 3.0622666,10.6626354 C3.77059016,8.95417117 4.80004375,7.42508477 6.14975235,6.07493867 C8.81635651,3.35889623 12.0910951,2 15.9744058,2 Z M16.0267648,4 C12.6804812,4 9.86537546,5.17056396 7.58190519,7.51077487 C6.43124846,8.68133883 5.54686696,9.99541493 4.92830318,11.4539202 C4.30882438,12.9124254 4,14.436497 4,16.0261347 C4,17.5983493 4.30882438,19.1137092 4.92830318,20.5712975 C5.54732448,22.0307198 6.43124846,23.3319578 7.58190519,24.4759284 C8.7321044,25.6203576 10.0300818,26.4928931 11.4776675,27.0962861 C12.9238805,27.698762 14.4405513,28 16.0267648,28 C17.595135,28 19.1150085,27.695094 20.5895877,27.0834479 C22.0623368,26.4713434 23.3900528,25.5900962 24.5759384,24.437414 C26.8589512,22.2017423 28,19.398441 28,16.0265933 C28,14.4021091 27.7035286,12.8651995 27.1110434,11.4154058 C26.5194732,9.96561209 25.6561374,8.67354424 24.5242389,7.53736817 C22.1698534,5.17927556 19.3382771,4 16.0267648,4 Z M14.9750321,14.0941923 L13.063646,15.1030431 C12.8594438,14.6726182 12.6093184,14.3702797 12.3123781,14.1978383 C12.0149919,14.0258493 11.7390069,13.9394022 11.483977,13.9394022 C10.2106114,13.9394022 9.57303685,14.7925578 9.57303685,16.4997742 C9.57303685,17.2755347 9.73443683,17.8956 10.056791,18.3613279 C10.3795909,18.8270557 10.8553196,19.0601461 11.483977,19.0601461 C12.3163908,19.0601461 12.9022461,18.6460148 13.2424344,17.8186576 L15,18.7238625 C14.6263724,19.43128 14.1082874,19.9870758 13.4457448,20.3921549 C12.7840941,20.7976867 12.0533355,21 11.2548069,21 C9.98099538,21 8.9528507,20.6039728 8.17171041,19.8101083 C7.39057014,19.0171488 7,17.9137041 7,16.5002267 C7,15.1206946 7.3950287,14.0263019 8.18464025,13.215691 C8.97425181,12.4055327 9.97207825,12 11.1785655,12 C12.9454941,11.9990957 14.2103885,12.6974612 14.9750321,14.0941923 Z M23.9500585,14.0941923 L22.0643219,15.1030431 C21.8605428,14.6726182 21.6094978,14.3702797 21.3125244,14.1978383 C21.0146592,14.0258493 20.7297252,13.9394022 20.4590602,13.9394022 C19.1851068,13.9394022 18.5474612,14.7925578 18.5474612,16.4997742 C18.5474612,17.2755347 18.709325,17.8956 19.031715,18.3613279 C19.3541051,18.8270557 19.8294409,19.0601461 20.4590602,19.0601461 C21.290675,19.0601461 21.8770413,18.6460148 22.2163759,17.8186576 L24,18.7238625 C23.6098322,19.43128 23.0827712,19.9870758 22.4210468,20.3921549 C21.7584304,20.7976867 21.0365085,21 20.2552812,21 C18.9639374,21 17.9325567,20.6039728 17.1602475,19.8101083 C16.3861546,19.0171488 16,17.9137041 16,16.5002267 C16,15.1206946 16.3946269,14.0263019 17.1852183,13.215691 C17.9744719,12.4055327 18.9724096,12 20.1785853,12 C21.945265,11.9990957 23.2031659,12.6974612 23.9500585,14.0941923 Z" id="cc"></path>
                    </g>
                </g>
            </g>
        </g>
    </g>
</svg>