<?xml version="1.0" encoding="UTF-8"?>
<svg width="258px" height="46px" viewBox="0 0 258 46" version="1.1" xmlns="http://www.w3.org/2000/svg" xmlns:xlink="http://www.w3.org/1999/xlink">
    <!-- Generator: sketchtool 57.1 (101010) - https://sketch.com -->
    <title>BC7C20FF-A510-49B9-9DEF-BEDB4AAE27E0</title>
    <desc>Created with sketchtool.</desc>
    <defs>
        <polygon id="path-1" points="0.41643 0.128431034 20.95779 0.128431034 20.95779 13 0.41643 13"></polygon>
        <polygon id="path-3" points="0.29972 0.0119263889 7.8188 0.0119263889 7.8188 30.5774958 0.29972 30.5774958"></polygon>
        <polygon id="path-5" points="0 0.113794544 4.84109162 0.113794544 4.84109162 4.61609435 0 4.61609435"></polygon>
        <polygon id="path-7" points="0 0.295022488 4.84109162 0.295022488 4.84109162 4.79731659 0 4.79731659"></polygon>
    </defs>
    <g id="backend" stroke="none" stroke-width="1" fill="none" fill-rule="evenodd">
        <g id="Desktop-Copy" transform="translate(-160.000000, -76.000000)">
            <g id="Group-75" transform="translate(160.000000, 76.000000)">
                <path d="M97.5,26.917901 C93.7764374,26.917901 90.5745686,23.6881083 90.5745686,20.0181972 C90.5745686,16.0550148 93.7764374,13.0829454 97.5,13.0829454 C101.223563,13.0829454 104.425431,16.0550148 104.425431,20.0181972 C104.425431,23.6881083 101.223563,26.917901 97.5,26.917901 M97.5,10 C91.3933917,10 87,14.6237833 87,20.0181972 C87,25.4866695 91.1701153,30 97.5,30 C103.829885,30 108,25.4866695 108,20.0181972 C108,14.6237833 103.606608,10 97.5,10" id="Fill-1" fill="#FEFEFE"></path>
                <path d="M122.569313,26.6255733 C118.870331,26.6255733 115.689598,23.4143981 115.689598,19.7656414 C115.689598,15.825304 118.870331,12.8703665 122.569313,12.8703665 C126.268296,12.8703665 129.449028,15.825304 129.449028,19.7656414 C129.449028,23.4143981 126.268296,26.6255733 122.569313,26.6255733 M122.569313,9.80519207 C119.669246,9.80519207 117.160319,10.8574915 115.328743,12.5400766 L115.328743,1.69562839 C115.329596,1.67795683 115.334288,1.66196828 115.334288,1.64429671 C115.334288,1.6270459 115.329596,1.6106366 115.328743,1.59338579 L115.328743,1.4545378 L115.314667,1.4545378 C115.218268,0.636596962 114.521723,0 113.666931,0 C112.812138,0 112.11602,0.636596962 112.019621,1.4545378 L112,1.4545378 L112,28.4133462 L112.005972,28.4133462 C112.037536,29.293979 112.766498,30 113.666931,30 C114.56779,30 115.296752,29.293979 115.328316,28.4133462 L115.328743,28.4133462 L115.328743,28.4066142 C115.329596,28.3889427 115.334288,28.3729541 115.334288,28.3552825 C115.334288,28.3380317 115.329596,28.3216224 115.328743,28.3043716 L115.328743,27.0795641 C117.129608,28.6969327 119.611663,29.6899062 122.569313,29.6899062 C128.856986,29.6899062 133,25.2025918 133,19.7656414 C133,14.4023225 128.63561,9.80519207 122.569313,9.80519207" id="Fill-3" fill="#FEFEFE"></path>
                <path d="M82.9772425,34.9844589 C82.9862596,34.9115569 82.9995706,34.8395027 82.9995706,34.7640576 C82.9995706,33.7900537 82.1996238,33 81.2124645,33 C80.2253052,33 79.4253583,33.7900537 79.4253583,34.7640576 C79.4253583,34.8395027 79.4386693,34.9115569 79.4476864,34.9844589 L79.4249289,34.9844589 C79.4249289,34.9908166 79.4253583,34.9967505 79.4253583,35.0026844 C79.4253583,38.678299 76.223424,41.9126872 72.4997853,41.9126872 C68.7761466,41.9126872 65.5742123,38.678299 65.5742123,35.0026844 C65.5742123,34.9967505 65.5746417,34.9908166 65.5746417,34.9844589 L65.5514548,34.9844589 C65.5609013,34.9115569 65.5742123,34.8395027 65.5742123,34.7640576 C65.5742123,33.7900537 64.7738361,33 63.7871061,33 C62.7999468,33 62,33.7900537 62,34.7640576 C62,34.8395027 62.0128816,34.9115569 62.0223281,34.9844589 L62,34.9844589 C62,34.9908166 62,34.9967505 62,35.0026844 C62,40.4792314 66.1697712,45 72.4997853,45 C78.8297994,45 83,40.4792314 83,35.0026844 C83,34.9967505 82.9995706,34.9908166 82.9995706,34.9844589 L82.9772425,34.9844589 Z" id="Fill-5" fill="#FEFEFE"></path>
                <path d="M235.500215,26.7832403 C231.776576,26.7832403 228.574212,23.5794954 228.574212,19.9387044 C228.574212,16.0069692 231.776576,13.0584827 235.500215,13.0584827 C239.223424,13.0584827 242.425358,16.0069692 242.425358,19.9387044 C242.425358,23.5794954 239.223424,26.7832403 235.500215,26.7832403 M246,19.9387044 C246,14.5870943 241.606518,10 235.500215,10 C229.393482,10 225,14.5870943 225,19.9387044 C225,25.3633654 229.170201,29.8413032 235.500215,29.8413032 C238.401149,29.8413032 240.846075,28.8987783 242.646492,27.3579915 L242.646492,28.3336832 C242.646492,28.3424997 242.643916,28.3500567 242.643916,28.359293 C242.643916,28.3676897 242.646492,28.3756665 242.646492,28.3840631 L242.646492,28.3991771 L242.64778,28.3991771 C242.670109,29.2862841 243.409083,30 244.321958,30 C245.234833,30 245.974237,29.2862841 245.995706,28.3991771 L245.997424,28.3991771 L245.997424,28.3840631 C245.997424,28.3756665 246,28.3676897 246,28.359293 C246,28.3500567 245.997424,28.3424997 245.997424,28.3336832 L245.997424,20.0474411 C245.997853,20.0113355 246,19.9752299 246,19.9387044" id="Fill-7" fill="#FEFEFE"></path>
                <g id="Group-11" transform="translate(178.000000, 33.000000)">
                    <mask id="mask-2" fill="white">
                        <use xlink:href="#path-1"></use>
                    </mask>
                    <g id="Clip-10"></g>
                    <path d="M20.91159,2.40701724 C20.93973,2.27387931 20.95779,2.1367069 20.95779,1.99415517 C20.95779,0.963568966 20.17491,0.128431034 19.20933,0.128431034 C18.24417,0.128431034 17.46129,0.963568966 17.46129,1.99415517 C17.46129,2.1367069 17.47935,2.27387931 17.50791,2.40701724 L17.46087,2.40701724 C17.46087,2.41374138 17.46129,2.42001724 17.46129,2.42674138 C17.46129,6.31418966 14.32935,9.73498276 10.68711,9.73498276 C7.04487,9.73498276 3.91293,6.31418966 3.91293,2.42674138 C3.91293,2.42001724 3.91335,2.41374138 3.91335,2.40701724 L3.86673,2.40701724 C3.89487,2.27387931 3.91293,2.1367069 3.91293,1.99415517 C3.91293,0.963568966 3.13047,0.128431034 2.16489,0.128431034 C1.19931,0.128431034 0.41685,0.963568966 0.41685,1.99415517 C0.41685,2.1367069 0.43449,2.27387931 0.46263,2.40701724 L0.41685,2.40701724 C0.41685,2.41374138 0.41643,2.42001724 0.41643,2.42674138 C0.41643,8.21891379 4.49547,13.0002241 10.68711,13.0002241 C16.87833,13.0002241 20.95779,8.21891379 20.95779,2.42674138 C20.95779,2.42001724 20.95737,2.41374138 20.95737,2.40701724 L20.91159,2.40701724 Z" id="Fill-9" fill="#FEFEFE" mask="url(#mask-2)"></path>
                </g>
                <path d="M79.4254314,20.0122798 C79.4254314,23.6843665 76.2235626,26.9160738 72.5,26.9160738 C68.7764374,26.9160738 65.5745686,23.6843665 65.5745686,20.0122798 C65.5745686,16.046748 68.7764374,13.0724932 72.5,13.0724932 C76.2235626,13.0724932 79.4254314,16.046748 79.4254314,20.0122798 L79.4254314,20.0122798 Z M81.5122066,13.0724932 L81.5122066,13.0606369 C82.3190071,12.9992378 82.9562035,12.3420562 82.9562035,11.5307419 C82.9562035,10.7194275 82.3190071,10.0613991 81.5122066,10 L71.0122066,10.0855352 C65.6935062,10.7672764 62,15.0643631 62,20.0122798 C62,25.4839939 66.1701153,30 72.5,30 C78.8298847,30 83,25.4839939 83,20.0122798 C83,17.3598408 81.9372904,14.8949864 80.1330457,13.0724932 L81.5122066,13.0724932 Z" id="Fill-12" fill="#FEFEFE"></path>
                <path d="M195.099236,19.9891773 C195.099236,23.6697579 191.957304,26.908516 188.303445,26.908516 C184.649586,26.908516 181.507654,23.6697579 181.507654,19.9891773 C181.507654,16.0144728 184.649586,13.0333383 188.303445,13.0333383 C191.957304,13.0333383 195.099236,16.0144728 195.099236,19.9891773 M199,11.5453176 C199,10.692231 198.312795,10 197.465059,10 L187.161614,10 C181.771413,10.5462301 178,14.9292278 178,19.9891773 C178,25.4731235 182.092053,30 188.303445,30 C194.514416,30 198.60689,25.4731235 198.60689,19.9891773 C198.60689,17.3301785 197.564074,14.9181928 195.793604,13.091484 L197.465059,13.091484 C198.312795,13.091484 199,12.399253 199,11.5453176" id="Fill-14" fill="#FEFEFE"></path>
                <path d="M173,11.6315965 C173,10.7306279 172.328685,10 171.5,10 C170.671699,10 170,10.7306279 170,11.6315965 C170,11.6403641 170.001919,11.6482966 170.001919,11.6570641 L170.001919,28.3429359 C170.001919,28.3517034 170,28.3592184 170,28.3684035 C170,28.3767535 170.001919,28.384686 170.001919,28.3930361 L170.001919,28.4080661 L170.003454,28.4080661 C170.023414,29.2902472 170.683982,30 171.5,30 C172.316018,30 172.976586,29.2902472 172.996546,28.4080661 L172.997697,28.4080661 L172.997697,28.3930361 C172.998081,28.384686 173,28.3767535 173,28.3684035 C173,28.3592184 172.998081,28.3517034 172.997697,28.3429359 L172.997697,11.6570641 C172.998081,11.6482966 173,11.6403641 173,11.6315965" id="Fill-16" fill="#FEFEFE"></path>
                <path d="M207,11.6407414 C207,10.7343032 206.328301,10 205.5,10 C204.671315,10 204,10.7343032 204,11.6407414 C204,11.6495581 204.001919,11.6575351 204.001919,11.6663518 L204.001919,28.3340681 C204.001919,28.3424649 204,28.3504419 204,28.3592586 C204,28.3680752 204.001919,28.3756324 204.001919,28.3844491 L204.001919,28.3991435 L204.003454,28.3991435 C204.02303,29.2862691 204.683982,30 205.5,30 C206.316018,30 206.976203,29.2862691 206.996162,28.3991435 L206.997697,28.3991435 L206.997697,28.3844491 C206.997697,28.3756324 207,28.3680752 207,28.3592586 C207,28.3504419 206.997697,28.3424649 206.997697,28.3340681 L206.997697,11.6663518 C206.997697,11.6575351 207,11.6495581 207,11.6407414" id="Fill-18" fill="#FEFEFE"></path>
                <path d="M153.429416,26.7757815 C149.730884,26.7757815 146.550539,23.5650271 146.550539,19.9162705 C146.550539,15.975933 149.730884,13.0209955 153.429416,13.0209955 C157.127947,13.0209955 160.308292,15.975933 160.308292,19.9162705 C160.308292,23.5650271 157.127947,26.7757815 153.429416,26.7757815 M164,1.64471747 C164,0.736315059 163.25364,0 162.333272,0 C161.412478,0 160.666545,0.736315059 160.666545,1.64471747 C160.666545,1.65355325 160.669104,1.66196828 160.669104,1.6703833 L160.669104,12.6907056 C158.838177,11.0081205 156.329129,9.9558211 153.429416,9.9558211 C147.363858,9.9558211 143,14.5529516 143,19.9162705 C143,25.3528001 147.142509,29.8405352 153.429416,29.8405352 C156.386706,29.8405352 158.868884,28.8475617 160.669104,27.2301931 L160.669104,28.3300374 C160.669104,28.3388732 160.666545,28.3468675 160.666545,28.3557033 C160.666545,28.3645391 160.669104,28.3725333 160.669104,28.3813691 L160.669104,28.5458829 L160.685737,28.5458829 C160.782124,29.363403 161.478584,30 162.333272,30 C163.187534,30 163.883994,29.363403 163.980381,28.5458829 L163.997441,28.5458829 L163.997441,28.3809484 C163.997441,28.3725333 164,28.3641183 164,28.3557033 C164,28.3468675 163.997441,28.339294 163.997441,28.3300374 L163.997441,1.66996255 C163.997441,1.66154752 164,1.65355325 164,1.64471747" id="Fill-20" fill="#FEFEFE"></path>
                <path d="M222.565245,26.9404275 L222.565245,26.9290442 L222.447008,26.9290442 C222.445288,26.9290442 222.443999,26.9286226 222.442279,26.9286226 C222.440989,26.9286226 222.439269,26.9290442 222.437979,26.9290442 L221.036331,26.9290442 C219.731422,26.9290442 219.396059,26.5630929 219.396059,25.5398626 L219.396059,13.2349593 L222.330921,13.2349593 C222.349839,13.2353809 222.367467,13.2404402 222.386385,13.2404402 C222.405303,13.2404402 222.422931,13.2353809 222.441849,13.2349593 L222.490434,13.2349593 L222.490434,13.2299001 C223.2579,13.1767781 223.864995,12.5561786 223.864995,11.7901261 C223.864995,11.0244951 223.26349,10.401366 222.496453,10.3486656 L222.468076,10.3469792 L222.453458,10.3469792 C222.4311,10.3457144 222.410032,10.3474008 222.386815,10.3474008 C222.364027,10.3474008 222.3421,10.3457144 222.319742,10.3469792 L219.396059,10.3469792 L219.396059,1.68430372 C219.396489,1.67123403 219.399928,1.80361735 219.399928,1.79096927 C219.399928,0.88072853 218.64751,0 217.71924,0 C216.80387,0 216.06263,0.862178001 216.042422,1.75513302 L216.040272,1.75513302 L216.040272,1.77621316 C216.040272,1.7812724 216.038982,1.78591003 216.038982,1.79096927 C216.038982,1.7956069 216.040272,1.65689953 216.040272,1.66195877 L216.040272,10.3469792 L213.545253,10.3469792 C213.522895,10.3457144 213.501397,10.3402336 213.47861,10.3402336 C213.455392,10.3402336 213.434325,10.3457144 213.411537,10.3469792 L213.356073,10.3469792 L213.356073,10.3520385 C212.597205,10.4144357 212,11.0308192 212,11.7901261 C212,12.5498545 212.597205,13.166238 213.356073,13.2282137 L213.356073,13.2349593 L213.422716,13.2349593 C213.441634,13.2353809 213.459262,13.2404402 213.47861,13.2404402 C213.497528,13.2404402 213.515156,13.2353809 213.534074,13.2349593 L216.040272,13.2349593 L216.040272,25.9049707 C216.040272,28.8296303 217.084199,30 220.514368,30 C221.197994,30 221.881619,30 222.366607,29.975547 C222.392404,29.9768118 222.416482,29.9831359 222.442279,29.9831359 C223.302616,29.9831359 224,29.2992959 224,28.4556685 C224,27.6533581 223.366679,27.0028247 222.565245,26.9404275" id="Fill-22" fill="#FEFEFE"></path>
                <g id="Group-26" transform="translate(250.000000, 0.000000)">
                    <mask id="mask-4" fill="white">
                        <use xlink:href="#path-3"></use>
                    </mask>
                    <g id="Clip-25"></g>
                    <path d="M6.36972,27.4408986 C6.36852,27.4408986 6.36692,27.4413292 6.36572,27.4413292 L5.43292,27.4413292 C4.42732,27.4413292 3.42132,26.6947458 3.42132,24.4915931 L3.42132,1.74663472 C3.42212,1.72898194 3.42652,1.71262083 3.42652,1.6945375 C3.42652,1.67688472 3.42212,1.66052361 3.42132,1.64244028 L3.42132,1.59206528 L3.41652,1.59206528 C3.36652,0.711579167 2.69372,0.0119263889 1.86292,0.0119263889 C1.03212,0.0119263889 0.35972,0.711579167 0.30932,1.59206528 L0.29972,1.59206528 L0.29972,24.7533708 C0.29972,28.8229819 2.20732,30.5774958 5.08652,30.5774958 L6.36972,30.5774958 L6.36972,30.5602736 C7.17012,30.5602736 7.81892,29.8619125 7.81892,29.0003708 C7.81892,28.1392597 7.17012,27.4408986 6.36972,27.4408986" id="Fill-24" fill="#FEFEFE" mask="url(#mask-4)"></path>
                </g>
                <path d="M94,42.5194692 L94,42.4995944 C94,40.5855256 95.4299804,39 97.3816118,39 C98.5023306,39 99.2075931,39.3865454 99.864622,39.9475026 C99.9128555,39.9957701 99.9614943,40.0635068 99.9614943,40.1507127 C99.9614943,40.2857805 99.8358441,40.4017847 99.7004661,40.4017847 C99.6323718,40.4017847 99.5650882,40.3729864 99.5265824,40.334048 C98.9660204,39.8217638 98.3187192,39.4542821 97.3718841,39.4542821 C95.7489698,39.4542821 94.5220563,40.779001 94.5220563,42.4805308 L94.5220563,42.4995944 C94.5220563,44.2112643 95.76802,45.5457179 97.3816118,45.5457179 C98.2992637,45.5457179 98.9465649,45.2163634 99.5845437,44.6075443 C99.6234547,44.5690115 99.6810106,44.530073 99.7584273,44.530073 C99.8840776,44.530073 100,44.6460772 100,44.7722216 C100,44.8492873 99.9614943,44.9072894 99.9225833,44.9458222 C99.2367763,45.5842508 98.4926029,46 97.3625616,46 C95.4299804,46 94,44.4623363 94,42.5194692" id="Fill-27" fill="#FEFEFE"></path>
                <path d="M111,39.2571699 C111,39.11863 111.130415,39 111.282262,39 C111.435021,39 111.564979,39.11863 111.564979,39.2571699 L111.564979,42.2428301 L116.434565,42.2428301 L116.434565,39.2571699 C116.434565,39.11863 116.564979,39 116.717282,39 C116.869585,39 117,39.11863 117,39.2571699 L117,45.7432448 C117,45.88137 116.869585,46 116.717282,46 C116.564979,46 116.434565,45.88137 116.434565,45.7432448 L116.434565,42.7177649 L111.564979,42.7177649 L111.564979,45.7432448 C111.564979,45.88137 111.435021,46 111.282262,46 C111.130415,46 111,45.88137 111,45.7432448 L111,39.2571699 Z" id="Fill-29" fill="#FEFEFE"></path>
                <path d="M128,39.2571699 C128,39.11863 128.230831,39 128.499596,39 C128.769976,39 129,39.11863 129,39.2571699 L129,45.7432448 C129,45.88137 128.769976,46 128.499596,46 C128.230831,46 128,45.88137 128,45.7432448 L128,39.2571699 Z" id="Fill-31" fill="#FEFEFE"></path>
                <path d="M143,39.2586258 C143,39.1193016 143.128021,39 143.278052,39 C143.428084,39 143.556554,39.1193016 143.556554,39.2586258 L143.556554,45.5227936 L147.743509,45.5227936 C147.882311,45.5227936 148,45.6316668 148,45.7613968 C148,45.8902926 147.882311,46 147.743509,46 L143.278052,46 C143.128021,46 143,45.8806984 143,45.7413742 L143,39.2586258 Z" id="Fill-33" fill="#FEFEFE"></path>
                <path d="M158,45.7398861 L158,39.2601139 C158,39.1195685 158.141994,39 158.307323,39 L163.65693,39 C163.81084,39 163.940918,39.1099191 163.940918,39.239976 C163.940918,39.3696134 163.81084,39.4795325 163.65693,39.4795325 L158.615143,39.4795325 L158.615143,42.230027 L163.124204,42.230027 C163.278113,42.230027 163.408192,42.3399461 163.408192,42.4695835 C163.408192,42.6000599 163.278113,42.709979 163.124204,42.709979 L158.615143,42.709979 L158.615143,45.5200479 L163.716012,45.5200479 C163.869425,45.5200479 164,45.6295475 164,45.760024 C164,45.8896614 163.869425,46 163.716012,46 L158.307323,46 C158.141994,46 158,45.880012 158,45.7398861" id="Fill-35" fill="#FEFEFE"></path>
                <path d="M45.51335,35 C46.893745,34.9955799 48.0076752,35.6633876 48,36.4914839 C47.9934321,37.3203206 46.8682261,37.995532 45.4878311,38 C44.1062491,38.0047865 42.9929124,37.3366086 43,36.5085123 C43.0071555,35.6800457 44.1323615,35.0048344 45.51335,35" id="Fill-37" fill="#FEFEFE"></path>
                <path d="M39.3845245,38 L30.6154755,38 C29.7233473,38 29,37.328699 29,36.5002195 C29,35.671301 29.7233473,35 30.6154755,35 L39.3845245,35 C40.2766527,35 41,35.671301 41,36.5002195 C41,37.328699 40.2766527,38 39.3845245,38" id="Fill-39" fill="#FEFEFE"></path>
                <path d="M24.5483808,38 L1.45161923,38 C0.649978759,38 0,37.328699 0,36.5002195 C0,35.671301 0.649978759,35 1.45161923,35 L24.5483808,35 C25.3500212,35 26,35.671301 26,36.5002195 C26,37.328699 25.3500212,38 24.5483808,38" id="Fill-41" fill="#FEFEFE"></path>
                <path d="M2.4876651,20 C1.10673026,20.0051526 -0.00685284312,19.3373466 0,18.5088823 C0.00691634517,17.6800477 1.13197377,17.0048382 2.5123349,17 C3.89326974,16.9952135 5.00685284,17.6633896 5,18.4914838 C4.99308365,19.319578 3.86802623,19.9951577 2.4876651,20" id="Fill-43" fill="#FEFEFE"></path>
                <path d="M15.4772727,20 L8.52272727,20 C7.68181818,20 7,19.3283582 7,18.5 C7,17.6716418 7.68181818,17 8.52272727,17 L15.4772727,17 C16.3181818,17 17,17.6716418 17,18.5 C17,19.3283582 16.3181818,20 15.4772727,20" id="Fill-45" fill="#FEFEFE"></path>
                <path d="M46.4888889,20 L21.5111111,20 C20.6766169,20 20,19.3283582 20,18.5 C20,17.6716418 20.6766169,17 21.5111111,17 L46.4888889,17 C47.3233831,17 48,17.6716418 48,18.5 C48,19.3283582 47.3233831,20 46.4888889,20" id="Fill-47" fill="#FEFEFE"></path>
                <g id="Group-51">
                    <mask id="mask-6" fill="white">
                        <use xlink:href="#path-5"></use>
                    </mask>
                    <g id="Clip-50"></g>
                    <path d="M2.40883333,4.61609435 C1.07161111,4.62327778 -0.00672222222,3.62105556 -8.63015183e-05,2.37827778 C0.00661111111,1.13438889 1.09605556,0.121055556 2.43272222,0.113794544 C3.76994444,0.106611111 4.84827778,1.10883333 4.84109162,2.35216667 C4.83438889,3.59494444 3.7455,4.60883333 2.40883333,4.61609435" id="Fill-49" fill="#FEFEFE" mask="url(#mask-6)"></path>
                </g>
                <path d="M14.6537306,3 L9.34626939,3 C8.60280719,3 8,2.32869896 8,1.50021952 C8,0.671301039 8.60280719,0 9.34626939,0 L14.6537306,0 C15.3971928,0 16,0.671301039 16,1.50021952 C16,2.32869896 15.3971928,3 14.6537306,3" id="Fill-52" fill="#FEFEFE"></path>
                <path d="M45.494302,3 L19.5052574,3 C18.6741932,3 18,2.32869896 18,1.50021952 C18,0.671301039 18.6741932,0 19.5052574,0 L45.494302,0 C46.3258068,0 47,0.671301039 47,1.50021952 C47,2.32869896 46.3258068,3 45.494302,3" id="Fill-54" fill="#FEFEFE"></path>
                <path d="M45.5130547,8 C46.8938809,7.99557985 48.0070867,8.66338756 48,9.49148392 C47.9928453,10.3203206 46.8677716,10.995532 45.4875387,11 C44.1061191,11.0047865 42.9929133,10.3366086 43,9.50851228 C43.0077481,8.68004573 44.1322284,8.0048344 45.5130547,8" id="Fill-56" fill="#FEFEFE"></path>
                <path d="M24.5488076,11 L1.45119242,11 C0.649787651,11 0,10.328699 0,9.50021952 C0,8.67130104 0.649787651,8 1.45119242,8 L24.5488076,8 C25.3502123,8 26,8.67130104 26,9.50021952 C26,10.328699 25.3502123,11 24.5488076,11" id="Fill-58" fill="#FEFEFE"></path>
                <path d="M39.3687142,11 L30.6308084,11 C29.7304265,11 29,10.328699 29,9.50021952 C29,8.67130104 29.7304265,8 30.6308084,8 L39.3687142,8 C40.2695735,8 41,8.67130104 41,9.50021952 C41,10.328699 40.2695735,11 39.3687142,11" id="Fill-60" fill="#FEFEFE"></path>
                <path d="M31.508144,26 C32.3366116,25.9952135 33.0044202,26.6633914 33,27.4918579 C32.995906,28.3206946 32.3203236,28.9955358 31.4922262,29 C30.6637586,29.0044201 29.9955798,28.3366124 30,27.5081459 C30.0044642,26.6796794 30.6796764,26.004468 31.508144,26" id="Fill-62" fill="#FEFEFE"></path>
                <path d="M26.4654766,29 L1.53452341,29 C0.687100034,29 0,28.328699 0,27.4997805 C0,26.671301 0.687100034,26 1.53452341,26 L26.4654766,26 C27.3129,26 28,26.671301 28,27.4997805 C28,28.328699 27.3129,29 26.4654766,29" id="Fill-64" fill="#FEFEFE"></path>
                <path d="M44.5761313,29 L37.423452,29 C36.6375531,29 36,28.328699 36,27.4997805 C36,26.671301 36.6375531,26 37.423452,26 L44.5761313,26 C45.3624469,26 46,26.671301 46,27.4997805 C46,28.328699 45.3624469,29 44.5761313,29" id="Fill-66" fill="#FEFEFE"></path>
                <g id="Group-70" transform="translate(0.000000, 41.000000)">
                    <mask id="mask-8" fill="white">
                        <use xlink:href="#path-7"></use>
                    </mask>
                    <g id="Clip-69"></g>
                    <path d="M2.40883333,4.79731659 C1.07161111,4.8045 -0.00672222222,3.80283333 -8.63015183e-05,2.5595 C0.00661111111,1.31616667 1.09605556,0.302277778 2.43272222,0.295022488 C3.76994444,0.288388889 4.84827778,1.29061111 4.84109162,2.53338889 C4.83438889,3.77672222 3.7455,4.79005556 2.40883333,4.79731659" id="Fill-68" fill="#FEFEFE" mask="url(#mask-8)"></path>
                </g>
                <path d="M15.4653043,44 L8.53469571,44 C7.68717718,44 7,43.3283582 7,42.5 C7,41.6716418 7.68717718,41 8.53469571,41 L15.4653043,41 C16.3128228,41 17,41.6716418 17,42.5 C17,43.3283582 16.3128228,44 15.4653043,44" id="Fill-71" fill="#FEFEFE"></path>
                <path d="M46.4970782,44 L21.5029218,44 C20.67295,44 20,43.3283582 20,42.5 C20,41.6716418 20.67295,41 21.5029218,41 L46.4970782,41 C47.32705,41 48,41.6716418 48,42.5 C48,43.3283582 47.32705,44 46.4970782,44" id="Fill-73" fill="#FEFEFE"></path>
            </g>
        </g>
    </g>
</svg>