<?xml version="1.0" encoding="UTF-8"?>
<svg width="30px" height="30px" viewBox="0 0 30 30" version="1.1" xmlns="http://www.w3.org/2000/svg" xmlns:xlink="http://www.w3.org/1999/xlink">
    <!-- Generator: Sketch 48.2 (47327) - http://www.bohemiancoding.com/sketch -->
    <title>cc</title>
    <desc>Created with Sketch.</desc>
    <defs></defs>
    <g id="Footer/2" stroke="none" stroke-width="1" fill="none" fill-rule="evenodd" transform="translate(-1274.000000, -66.000000)">
        <g id="cc" transform="translate(1274.000000, 66.000000)" fill="#7D8391" fill-rule="nonzero">
            <path d="M14.9727692,0.230769231 C19.104,0.230769231 22.6213846,1.67307692 25.5221538,4.55630769 C26.9104615,5.94507692 27.966,7.53230769 28.6869231,9.31661538 C29.4073846,11.1013846 29.7687692,12.9955385 29.7687692,15 C29.7687692,17.022 29.412,18.9166154 28.7007692,20.6829231 C27.9886154,22.4496923 26.9376923,24.0106154 25.5493846,25.3643077 C24.108,26.7881538 22.4727692,27.8787692 20.6436923,28.6347692 C18.8155385,29.3907692 16.9250769,29.7687692 14.9736923,29.7687692 C13.0223077,29.7687692 11.154,29.3958462 9.36923077,28.6476923 C7.58492308,27.9009231 5.98476923,26.8195385 4.56923077,25.4044615 C3.15369231,23.9893846 2.07692308,22.3933846 1.33846154,20.6173846 C0.6,18.8413846 0.230769231,16.9693846 0.230769231,15 C0.230769231,13.0481538 0.604153846,11.1715385 1.35138462,9.36923077 C2.09861538,7.56692308 3.18461538,5.95384615 4.60846154,4.52953846 C7.42153846,1.66430769 10.8761538,0.230769231 14.9727692,0.230769231 Z M15.0263077,2.89476923 C11.6506154,2.89476923 8.81076923,4.07307692 6.50723077,6.42876923 C5.34646154,7.60707692 4.45430769,8.92984615 3.83030769,10.398 C3.20538462,11.8661538 2.89384615,13.4003077 2.89384615,15.0004615 C2.89384615,16.5830769 3.20538462,18.1084615 3.83030769,19.5756923 C4.45476923,21.0447692 5.34646154,22.3546154 6.50723077,23.5061538 C7.66753846,24.6581538 8.97692308,25.5364615 10.4372308,26.1438462 C11.8961538,26.7503077 13.4261538,27.0535385 15.0263077,27.0535385 C16.6084615,27.0535385 18.1416923,26.7466154 19.6292308,26.1309231 C21.1149231,25.5147692 22.4543077,24.6276923 23.6506154,23.4673846 C25.9536923,21.2169231 27.1047692,18.3950769 27.1047692,15.0009231 C27.1047692,13.3656923 26.8056923,11.8186154 26.208,10.3592308 C25.6112308,8.89984615 24.7403077,7.59923077 23.5984615,6.45553846 C21.2233846,4.08184615 18.3669231,2.89476923 15.0263077,2.89476923 Z M14.8412308,12.5478462 L12.8626154,13.5766154 C12.6512308,13.1376923 12.3923077,12.8293846 12.0849231,12.6535385 C11.7770769,12.4781538 11.4913846,12.39 11.2273846,12.39 C9.90923077,12.39 9.24923077,13.26 9.24923077,15.0009231 C9.24923077,15.792 9.41630769,16.4243077 9.75,16.8992308 C10.0841538,17.3741538 10.5766154,17.6118462 11.2273846,17.6118462 C12.0890769,17.6118462 12.6955385,17.1895385 13.0476923,16.3458462 L14.8670769,17.2689231 C14.4803077,17.9903077 13.944,18.5570769 13.2581538,18.9701538 C12.5732308,19.3836923 11.8167692,19.59 10.9901538,19.59 C9.67153846,19.59 8.60723077,19.1861538 7.79861538,18.3766154 C6.99,17.568 6.58569231,16.4427692 6.58569231,15.0013846 C6.58569231,13.5946154 6.99461538,12.4786154 7.812,11.652 C8.62938462,10.8258462 9.66230769,10.4123077 10.9112308,10.4123077 C12.7403077,10.4113846 14.0496923,11.1235385 14.8412308,12.5478462 Z M23.3598462,12.5478462 L21.408,13.5766154 C21.1970769,13.1376923 20.9372308,12.8293846 20.6298462,12.6535385 C20.3215385,12.4781538 20.0266154,12.39 19.7464615,12.39 C18.4278462,12.39 17.7678462,13.26 17.7678462,15.0009231 C17.7678462,15.792 17.9353846,16.4243077 18.2690769,16.8992308 C18.6027692,17.3741538 19.0947692,17.6118462 19.7464615,17.6118462 C20.6072308,17.6118462 21.2141538,17.1895385 21.5653846,16.3458462 L23.4115385,17.2689231 C23.0076923,17.9903077 22.4621538,18.5570769 21.7772308,18.9701538 C21.0913846,19.3836923 20.3441538,19.59 19.5355385,19.59 C18.1989231,19.59 17.1313846,19.1861538 16.332,18.3766154 C15.5307692,17.568 15.1310769,16.4427692 15.1310769,15.0013846 C15.1310769,13.5946154 15.5395385,12.4786154 16.3578462,11.652 C17.1747692,10.8258462 18.2076923,10.4123077 19.4561538,10.4123077 C21.2847692,10.4113846 22.5867692,11.1235385 23.3598462,12.5478462 Z" id="Shape"></path>
        </g>
    </g>
</svg>