<?xml version="1.0" encoding="utf-8"?>
<!-- Generator: Adobe Illustrator 22.1.0, SVG Export Plug-In . SVG Version: 6.00 Build 0)  -->
<svg version="1.1"
	 id="svg426" inkscape:version="0.92.3 (2405546, 2018-03-11)" sodipodi:docname="logo.svg" xmlns:cc="http://creativecommons.org/ns#" xmlns:dc="http://purl.org/dc/elements/1.1/" xmlns:inkscape="http://www.inkscape.org/namespaces/inkscape" xmlns:rdf="http://www.w3.org/1999/02/22-rdf-syntax-ns#" xmlns:sodipodi="http://sodipodi.sourceforge.net/DTD/sodipodi-0.dtd" xmlns:svg="http://www.w3.org/2000/svg"
	 xmlns="http://www.w3.org/2000/svg" xmlns:xlink="http://www.w3.org/1999/xlink" x="0px" y="0px" viewBox="0 0 238.3 60.6"
	 style="enable-background:new 0 0 238.3 60.6;" xml:space="preserve">
<style type="text/css">
	.st0{fill:#FFFFFF;}
	.st1{fill:#D4DFE8;}
	.st2{fill:#0063AD;}
	.st3{fill:#E12E3A;}
	.st4{fill:#0763AA;}
</style>
<sodipodi:namedview  bordercolor="#666666" borderopacity="1.0" fit-margin-bottom="0" fit-margin-left="0" fit-margin-right="0" fit-margin-top="0" id="base" inkscape:current-layer="layer1" inkscape:cx="-1375.6605" inkscape:cy="-343.98656" inkscape:document-units="mm" inkscape:pageopacity="0.0" inkscape:pageshadow="2" inkscape:window-height="1017" inkscape:window-maximized="1" inkscape:window-width="1920" inkscape:window-x="-8" inkscape:window-y="-8" inkscape:zoom="0.35" pagecolor="#ffffff" showgrid="false">
	</sodipodi:namedview>
<g id="g180">
	<g id="g190" transform="translate(245.333,397.9316)">
		<path id="path192" inkscape:connector-curvature="0" class="st0" d="M-169.7-365.8c2,2.5,4.9,4.5,8.5,4.5c3.2,0,6.1-2.1,6.1-5.2
			c0-5.3-7.4-5.9-12-8.9c-2.5-1.6-4.4-4-4.4-7.7c0-5.1,4.5-9.2,10.5-9.2c4.4,0,7.5,1.9,9.3,3.5l-2.9,3.6c-1.9-1.6-4-2.4-6.2-2.4
			c-2.9,0-5.8,1.6-5.8,4.7c0,4.4,7.4,5.4,11.9,8.4c2.3,1.5,4.5,4,4.5,8c0,6.1-4.7,10.1-10.8,10.1c-4.8,0-9.1-2.1-12.2-5.8
			L-169.7-365.8z"/>
	</g>
	<g id="g194" transform="translate(297.1699,389.5625)">
		<path id="path196" inkscape:connector-curvature="0" class="st0" d="M-192.9-352.8c-2.2-2.4-3.6-5.7-3.6-10.3v-20.4h5v20.6
			c0,3.3,0.8,5.3,2.2,6.9c1.7,1.9,4.3,3.1,7.3,3.1c2.9,0,5.5-1.1,7.3-3.1c1.4-1.5,2.2-3.6,2.2-6.9v-20.6h5v20.4
			c0,4.7-1.4,7.9-3.6,10.3c-2.6,2.8-6.5,4.6-10.8,4.6C-186.4-348.3-190.3-350-192.9-352.8"/>
	</g>
	<g id="g198" transform="translate(381.4971,418.6309)">
		<path id="path200" inkscape:connector-curvature="0" class="st0" d="M-230.7-398c2.4,0,3.7-0.6,4.6-1.5c0.8-0.9,1.4-2.1,1.4-3.4
			c0-1.3-0.5-2.5-1.4-3.4c-0.9-0.9-2.2-1.5-4.6-1.5h-8v9.9H-230.7z M-238.6-393.2v15.4h-5v-34.8h13.2c3.4,0,5.6,0.8,7.3,2.3
			c2.1,1.8,3.4,4.4,3.4,7.4c0,3-1.3,5.6-3.4,7.4c-1.7,1.4-3.9,2.3-7.3,2.3H-238.6z"/>
	</g>
	<g id="g202" transform="translate(441.7939,420.4307)">
		<path id="path204" inkscape:connector-curvature="0" class="st0" d="M-257.7-400.8v4.7h-11.4v11.7h15.4v4.7h-20.4v-34.8h19.9v4.7
			h-14.9v8.9H-257.7z"/>
	</g>
	<g id="g206" transform="translate(482.292,420.4307)">
		<path id="path208" inkscape:connector-curvature="0" class="st0" d="M-275.8-400.8c2.2,0,3.4-0.5,4.2-1.3c0.8-0.8,1.3-1.9,1.3-3.2
			c0-1.2-0.5-2.4-1.3-3.2c-0.8-0.8-1.9-1.3-4.2-1.3h-7v8.9H-275.8z M-282.8-396v16.4h-5v-34.8h12.2c3.2,0,5.2,0.7,6.8,2
			c2.1,1.7,3.4,4.3,3.4,7.2c0,2.9-1.3,5.5-3.4,7.2c-1.1,0.9-2.3,1.5-4.1,1.8l12.5,16.6h-6l-12.4-16.4H-282.8z"/>
	</g>
	<g id="g210" transform="translate(244.6514,353.4883)">
		<path id="path212" inkscape:connector-curvature="0" class="st0" d="M-169.4-296.8c-0.9,0-1.7-0.3-2.3-0.8l0.4-0.7
			c0.5,0.4,1.3,0.7,2,0.7c1,0,1.6-0.6,1.6-1.4c0-2-3.8-1.2-3.8-3.8c0-1,0.9-1.9,2.4-1.9c1,0,1.7,0.3,2.2,0.6l-0.3,0.7
			c-0.3-0.2-1.1-0.5-1.9-0.5c-1.1,0-1.5,0.6-1.5,1.2c0,1.8,3.8,1.1,3.8,3.7C-166.9-297.8-167.8-296.8-169.4-296.8"/>
	</g>
	<path id="path214" inkscape:connector-curvature="0" class="st0" d="M79.6,48.8h0.9v0.9h-0.9V48.8z M79.7,56.5v-4.9L79,51.5V51h1.5
		v5.6H79.7z"/>
	<g id="g216" transform="translate(258.4541,361.2842)">
		<path id="path218" inkscape:connector-curvature="0" class="st0" d="M-175.6-308.9c0,1.2,2.8,0.8,2.8,2.7c0,0.9-0.7,1.7-1.9,1.7
			c-0.7,0-1.3-0.2-1.7-0.5l0.2-0.6c0.3,0.2,0.9,0.5,1.4,0.5c0.7,0,1.1-0.4,1.1-1c0-1.3-2.7-0.8-2.7-2.7c0-0.7,0.6-1.5,1.8-1.5
			c0.6,0,1.2,0.1,1.7,0.4l-0.2,0.6c-0.4-0.2-0.9-0.3-1.5-0.3C-175.2-309.8-175.6-309.5-175.6-308.9"/>
	</g>
	<g id="g220" transform="translate(269.5312,353.4883)">
		<path id="path222" inkscape:connector-curvature="0" class="st0" d="M-180.5-296.8c-0.8,0-1.4-0.4-1.4-1.7v-3.3h-0.8v-0.6h0.8v-1
			l0.9-0.3v1.3h1.6v0.6h-1.6v3.4c0,0.6,0.2,0.9,0.7,0.9c0.3,0,0.7-0.1,0.9-0.2l0.2,0.6C-179.6-297-180.1-296.8-180.5-296.8"/>
	</g>
	<g id="g224" transform="translate(277.5928,362.7598)">
		<path id="path226" inkscape:connector-curvature="0" class="st0" d="M-184.2-311.2c-1.1,0-1.5,0.9-1.5,1.9h2.9
			C-182.7-310.3-183.1-311.2-184.2-311.2 M-185.6-308.8c0,1.4,0.7,2,1.8,2c0.7,0,1.3-0.3,1.7-0.6l0.2,0.6c-0.5,0.3-1.2,0.6-2,0.6
			c-1.5,0-2.5-1-2.5-2.9c0-1.8,0.9-2.9,2.4-2.9c1.6,0,2.2,1.3,2.2,2.7v0.5H-185.6z"/>
	</g>
	<g id="g228" transform="translate(292.2773,360.0322)">
		<path id="path230" inkscape:connector-curvature="0" class="st0" d="M-190.7-307v3.5h-0.9v-3.4c0-1.1-0.3-1.6-1.2-1.6
			c-0.6,0-1,0.3-1.3,0.6v4.4h-0.9v-5.6h0.6l0.2,0.7c0.3-0.3,0.9-0.8,1.7-0.8c0.8,0,1.4,0.3,1.6,0.9c0.3-0.4,0.9-0.9,1.7-0.9
			c1.4,0,2,0.8,2,2.2v3.5h-0.9v-3.4c0-1.1-0.4-1.6-1.3-1.6c-0.5,0-1,0.3-1.3,0.6C-190.8-307.6-190.7-307.3-190.7-307"/>
	</g>
	<g id="g232" transform="translate(307.1279,358.3701)">
		<path id="path234" inkscape:connector-curvature="0" class="st0" d="M-197.4-304.4h-1.3c-0.9,0-1.3,0.4-1.3,1
			c0,0.7,0.4,1.1,1.2,1.1c0.5,0,1.1-0.3,1.4-0.7V-304.4z M-197.1-301.8l-0.1-0.7c-0.3,0.4-0.9,0.8-1.7,0.8c-1.1,0-1.8-0.8-1.8-1.7
			c0-1,0.7-1.6,2-1.6h1.4v-0.4c0-1-0.4-1.4-1.3-1.4c-0.7,0-1.3,0.2-1.7,0.4l-0.2-0.6c0.4-0.2,1.1-0.4,2-0.4c1.3,0,2,0.7,2,2v3.7
			H-197.1z"/>
	</g>
	<g id="g236" transform="translate(326.0811,358.8428)">
		<path id="path238" inkscape:connector-curvature="0" class="st0" d="M-205.9-305.2c0,1.6-0.8,3-2.6,3c-1.8,0-2.6-1.3-2.6-3v-4.8
			h0.9v4.7c0,1.3,0.4,2.3,1.7,2.3c1.3,0,1.7-1,1.7-2.3v-4.7h0.9V-305.2z"/>
	</g>
	<g id="g240" transform="translate(335.5986,353.6943)">
		<path id="path242" inkscape:connector-curvature="0" class="st0" d="M-210.1-297.2v-3.4c0-1.1-0.3-1.6-1.3-1.6
			c-0.6,0-1,0.3-1.4,0.6v4.4h-0.9v-5.6h0.6l0.2,0.7c0.3-0.3,0.9-0.8,1.7-0.8c1.3,0,1.9,0.8,1.9,2.2v3.5H-210.1z"/>
	</g>
	<path id="path244" inkscape:connector-curvature="0" class="st0" d="M128.3,48.8h0.9v0.9h-0.9V48.8z M128.4,56.5v-4.9l-0.6-0.1V51
		h1.5v5.6H128.4z"/>
	<g id="g246" transform="translate(351.2285,366.7178)">
		<path id="path248" inkscape:connector-curvature="0" class="st0" d="M-217.1-317.4c-0.2-0.1-0.5-0.1-0.7-0.1
			c-0.7,0-1.1,0.4-1.1,1.3v0.4h1.3v0.7h-1.3v4.9h-0.9v-4.9h-0.9v-0.7h0.9v-0.5c0-1.3,0.6-2,1.9-2c0.3,0,0.6,0,0.9,0.1L-217.1-317.4z
			"/>
	</g>
	<path id="path250" inkscape:connector-curvature="0" class="st0" d="M135.2,48.8h0.9v0.9h-0.9V48.8z M135.3,56.5v-4.9l-0.6-0.1V51
		h1.5v5.6H135.3z"/>
	<g id="g252" transform="translate(365.4414,354.3721)">
		<path id="path254" inkscape:connector-curvature="0" class="st0" d="M-223.5-298.2c-0.3,0.2-1,0.5-1.8,0.5c-1.4,0-2.4-0.8-2.4-2.9
			c0-1.9,1-2.9,2.4-2.9c0.6,0,1.3,0.1,1.8,0.4l-0.2,0.6c-0.4-0.2-1-0.4-1.5-0.4c-1,0-1.6,0.8-1.6,2.2c0,1.6,0.6,2.2,1.6,2.2
			c0.6,0,1.2-0.2,1.6-0.5L-223.5-298.2z"/>
	</g>
	<g id="g256" transform="translate(373.667,358.3701)">
		<path id="path258" inkscape:connector-curvature="0" class="st0" d="M-227.2-304.4h-1.3c-0.9,0-1.3,0.4-1.3,1
			c0,0.7,0.4,1.1,1.2,1.1c0.5,0,1.1-0.3,1.4-0.7V-304.4z M-226.9-301.8l-0.1-0.7c-0.3,0.4-0.9,0.8-1.7,0.8c-1.1,0-1.8-0.8-1.8-1.7
			c0-1,0.7-1.6,2-1.6h1.4v-0.4c0-1-0.4-1.4-1.3-1.4c-0.7,0-1.3,0.2-1.7,0.4l-0.2-0.6c0.4-0.2,1.1-0.4,2-0.4c1.3,0,2,0.7,2,2v3.7
			H-226.9z"/>
	</g>
	<g id="g260" transform="translate(384.7637,362.043)">
		<path id="path262" inkscape:connector-curvature="0" class="st0" d="M-232.1-310.1c-0.3-0.2-0.7-0.4-1.3-0.4c-1,0-1.5,0.8-1.5,2.2
			c0,1.4,0.4,2.3,1.5,2.3c0.5,0,1-0.2,1.4-0.7V-310.1z M-232.1-306.2c-0.3,0.4-0.9,0.8-1.6,0.8c-1.3,0-2.2-1-2.2-2.9
			c0-1.7,0.8-2.9,2.3-2.9c0.7,0,1.2,0.2,1.5,0.5c0-0.3,0-0.6,0-0.9v-1.7h0.9v7.8h-0.6L-232.1-306.2z"/>
	</g>
	<g id="g264" transform="translate(396.1064,358.7402)">
		<path id="path266" inkscape:connector-curvature="0" class="st0" d="M-237.2-305c0-1.5-0.5-2.2-1.5-2.2c-1,0-1.5,0.8-1.5,2.2
			c0,1.4,0.4,2.3,1.5,2.3C-237.6-302.7-237.2-303.5-237.2-305 M-236.3-305c0,1.9-0.9,2.9-2.4,2.9c-1.5,0-2.4-1-2.4-2.9
			c0-1.6,0.8-2.9,2.4-2.9C-237.2-307.9-236.3-306.7-236.3-305"/>
	</g>
	<g id="g268" transform="translate(411.8994,362.043)">
		<path id="path270" inkscape:connector-curvature="0" class="st0" d="M-244.3-310.1c-0.3-0.2-0.7-0.4-1.3-0.4c-1,0-1.5,0.8-1.5,2.2
			c0,1.4,0.4,2.3,1.5,2.3c0.5,0,1-0.2,1.4-0.7V-310.1z M-244.2-306.2c-0.3,0.4-0.9,0.8-1.6,0.8c-1.3,0-2.2-1-2.2-2.9
			c0-1.7,0.8-2.9,2.3-2.9c0.7,0,1.2,0.2,1.5,0.5c0-0.3,0-0.6,0-0.9v-1.7h0.9v7.8h-0.6L-244.2-306.2z"/>
	</g>
	<g id="g272" transform="translate(420.4941,362.7598)">
		<path id="path274" inkscape:connector-curvature="0" class="st0" d="M-248.1-311.2c-1.1,0-1.5,0.9-1.5,1.9h2.9
			C-246.7-310.3-247-311.2-248.1-311.2 M-249.6-308.8c0,1.4,0.7,2,1.8,2c0.7,0,1.3-0.3,1.7-0.6l0.2,0.6c-0.5,0.3-1.2,0.6-2,0.6
			c-1.5,0-2.5-1-2.5-2.9c0-1.8,0.9-2.9,2.4-2.9c1.6,0,2.2,1.3,2.2,2.7v0.5H-249.6z"/>
	</g>
	<g id="g276" transform="translate(435.8369,366.2061)">
		<path id="path278" inkscape:connector-curvature="0" class="st0" d="M-255-316.6h-1.1v3.3h1.1c1.2,0,1.9-0.6,1.9-1.7
			C-253.1-316.1-253.9-316.6-255-316.6 M-254.9-312.6h-1.1v2.9h-0.9v-7.6h2c1.5,0,2.7,0.7,2.7,2.3
			C-252.2-313.5-253.4-312.6-254.9-312.6"/>
	</g>
	<g id="g280" transform="translate(446.3789,362.7598)">
		<path id="path282" inkscape:connector-curvature="0" class="st0" d="M-259.7-311.2c-1.1,0-1.5,0.9-1.5,1.9h2.9
			C-258.3-310.3-258.6-311.2-259.7-311.2 M-261.2-308.8c0,1.4,0.7,2,1.8,2c0.7,0,1.3-0.3,1.7-0.6l0.2,0.6c-0.5,0.3-1.2,0.6-2,0.6
			c-1.5,0-2.5-1-2.5-2.9c0-1.8,0.9-2.9,2.4-2.9c1.6,0,2.2,1.3,2.2,2.7v0.5H-261.2z"/>
	</g>
	<g id="g284" transform="translate(458.3574,362.3916)">
		<path id="path286" inkscape:connector-curvature="0" class="st0" d="M-265.1-310.7c-0.2-0.1-0.4-0.1-0.7-0.1c-0.5,0-1,0.3-1.2,0.6
			v4.3h-0.9v-5.6h0.6l0.2,0.7c0.2-0.3,0.7-0.8,1.4-0.8c0.4,0,0.7,0.1,0.7,0.1L-265.1-310.7z"/>
	</g>
	<g id="g288" transform="translate(468.4277,360.0322)">
		<path id="path290" inkscape:connector-curvature="0" class="st0" d="M-269.6-307v3.5h-0.9v-3.4c0-1.1-0.3-1.6-1.2-1.6
			c-0.6,0-1,0.3-1.3,0.6v4.4h-0.9v-5.6h0.6l0.2,0.7c0.3-0.3,0.9-0.8,1.7-0.8c0.8,0,1.4,0.3,1.6,0.9c0.3-0.4,0.9-0.9,1.7-0.9
			c1.4,0,2,0.8,2,2.2v3.5h-0.9v-3.4c0-1.1-0.4-1.6-1.3-1.6c-0.5,0-1,0.3-1.3,0.6C-269.6-307.6-269.6-307.3-269.6-307"/>
	</g>
	<path id="path292" inkscape:connector-curvature="0" class="st0" d="M204.2,48.8h0.9v0.9h-0.9V48.8z M204.3,56.5v-4.9l-0.6-0.1V51
		h1.5v5.6H204.3z"/>
	<g id="g294" transform="translate(484.1201,361.2842)">
		<path id="path296" inkscape:connector-curvature="0" class="st0" d="M-276.6-308.9c0,1.2,2.8,0.8,2.8,2.7c0,0.9-0.7,1.7-1.9,1.7
			c-0.7,0-1.3-0.2-1.7-0.5l0.2-0.6c0.3,0.2,0.9,0.5,1.4,0.5c0.7,0,1.1-0.4,1.1-1c0-1.3-2.7-0.8-2.7-2.7c0-0.7,0.6-1.5,1.8-1.5
			c0.6,0,1.2,0.1,1.7,0.4l-0.2,0.6c-0.4-0.2-0.9-0.3-1.4-0.3C-276.3-309.8-276.6-309.5-276.6-308.9"/>
	</g>
	<g id="g298" transform="translate(498.4785,358.7402)">
		<path id="path300" inkscape:connector-curvature="0" class="st0" d="M-283-305c0-1.5-0.5-2.2-1.5-2.2c-1,0-1.5,0.8-1.5,2.2
			c0,1.4,0.4,2.3,1.5,2.3C-283.5-302.7-283-303.5-283-305 M-282.2-305c0,1.9-0.9,2.9-2.4,2.9c-1.5,0-2.4-1-2.4-2.9
			c0-1.6,0.8-2.9,2.4-2.9C-283-307.9-282.2-306.7-282.2-305"/>
	</g>
	<g id="g302" transform="translate(503.9951,361.2842)">
		<path id="path304" inkscape:connector-curvature="0" class="st0" d="M-285.5-308.9c0,1.2,2.8,0.8,2.8,2.7c0,0.9-0.7,1.7-1.9,1.7
			c-0.7,0-1.3-0.2-1.7-0.5l0.2-0.6c0.3,0.2,0.9,0.5,1.4,0.5c0.7,0,1.1-0.4,1.1-1c0-1.3-2.7-0.8-2.7-2.7c0-0.7,0.6-1.5,1.8-1.5
			c0.6,0,1.2,0.1,1.7,0.4l-0.2,0.6c-0.4-0.2-0.9-0.3-1.4-0.3C-285.2-309.8-285.5-309.5-285.5-308.9"/>
	</g>
	<g id="g306" transform="translate(159.2979,445.7734)">
		<path id="path308" inkscape:connector-curvature="0" class="st1" d="M-131.2-440.1v42.8h35.9l0.1-30.8l-8.9-11.9H-131.2z"/>
	</g>
	<path id="path310" inkscape:connector-curvature="0" class="st2" d="M60.5,34.8H33v-1.4h27.5V34.8z"/>
	<path id="path312" inkscape:connector-curvature="0" class="st2" d="M60.5,31.1H33v-1.4h27.5V31.1z"/>
	<path id="path314" inkscape:connector-curvature="0" class="st2" d="M60.5,27.3H33V26h27.5V27.3z"/>
	<path id="path316" inkscape:connector-curvature="0" class="st2" d="M60.5,23.3H33V22h27.5V23.3z"/>
	<g id="g318" transform="translate(208.248,424.165)">
		<path id="path320" inkscape:connector-curvature="0" class="st2" d="M-153.1-406.6h8.9l-8.9-11.9V-406.6z"/>
	</g>
	<g id="g322" transform="translate(159,391.166)">
		<path id="path324" inkscape:connector-curvature="0" class="st2" d="M-131.1-355.3v-30.2c0,0-27.9,17-20.1,36
			c4.1,8.3,18.5,9.6,31.7,11l0.7-14.8L-131.1-355.3z"/>
	</g>
	<g id="g326" transform="translate(224.1719,375.1973)">
		<path id="path328" inkscape:connector-curvature="0" class="st3" d="M-160.2-330.5c0,0,1.9-0.2,1.8-2.1c-0.2-2.5-6.6-3.6-10.6-4.1
			l-1.8-0.2c0,0,1.1-4.5,1.4-7.6c0.2-2-1-2.9-2.1-2.9c-1.5,0-2.4,0.8-3,1.8l-3.7,9.1l-6-0.9l-0.6,14.8c3.7,0.1,4.9,1.1,7.4,1.7
			c1.5,0.4,4.8,1.3,7.4,1.3c3.9,0,9.3-0.1,10.2-2c0.5-1.1-0.9-1.5-0.9-1.5s2.2-0.2,2.2-1.9c0-1.5-1.8-1.9-1.8-1.9
			C-158.3-326.8-157.1-330.1-160.2-330.5"/>
	</g>
	<path id="path330" inkscape:connector-curvature="0" class="st4" d="M39.4,14.8h-6.2V5.7h6.2V14.8z"/>
	<path id="path332" inkscape:connector-curvature="0" class="st3" d="M46.8,14.8h-7.4V5.7h7.4V14.8z"/>
</g>
</svg>
